<svg width="25" height="25" viewBox="0 0 25 25" fill="none" xmlns="http://www.w3.org/2000/svg">
<path d="M7.50009 9.25H8.00009V8.75V7.5C8.00009 6.30653 8.47419 5.16193 9.31811 4.31802C10.162 3.47411 11.3066 3 12.5001 3C13.6936 3 14.8382 3.47411 15.6821 4.31802C16.526 5.16193 17.0001 6.30653 17.0001 7.5V8.75V9.25H17.5001H18.7501H18.7501C18.9348 9.24999 19.1129 9.31808 19.2505 9.44125C19.388 9.56441 19.4753 9.73399 19.4956 9.9175L19.4956 9.91772L20.7456 21.1675C20.7456 21.1676 20.7456 21.1676 20.7456 21.1677C20.7572 21.2725 20.7466 21.3785 20.7144 21.4788C20.6822 21.5793 20.6292 21.6718 20.5589 21.7503L20.9314 22.0839L20.5589 21.7503C20.4885 21.8289 20.4024 21.8917 20.3061 21.9348C20.2099 21.9778 20.1056 22 20.0001 22H20.0001H5.00009H5.00005C4.8946 22 4.79032 21.9778 4.69404 21.9348C4.59776 21.8917 4.51163 21.8289 4.44128 21.7503C4.37093 21.6718 4.31794 21.5793 4.28576 21.4788C4.25359 21.3784 4.24295 21.2723 4.25455 21.1675L5.50453 9.91772L5.50455 9.9175C5.52486 9.73398 5.61215 9.56441 5.74971 9.44125C5.88726 9.31808 6.06541 9.24999 6.25005 9.25H6.25009H7.50009ZM15.0001 9.25H15.5001V8.75V7.5C15.5001 6.70435 15.184 5.94129 14.6214 5.37868C14.0588 4.81607 13.2957 4.5 12.5001 4.5C11.7044 4.5 10.9414 4.81607 10.3788 5.37868C9.81616 5.94129 9.50009 6.70435 9.50009 7.5V8.75V9.25H10.0001H15.0001ZM7.51265 13.7374L7.8157 13.4344L7.51265 13.7374C7.84084 14.0656 8.28596 14.25 8.75009 14.25C9.21422 14.25 9.65933 14.0656 9.98752 13.7374C10.3157 13.4092 10.5001 12.9641 10.5001 12.5C10.5001 12.0359 10.3157 11.5908 9.98752 11.2626C9.65933 10.9344 9.21422 10.75 8.75009 10.75C8.28596 10.75 7.84084 10.9344 7.51265 11.2626L7.8157 11.5656L7.51265 11.2626C7.18446 11.5908 7.00009 12.0359 7.00009 12.5C7.00009 12.9641 7.18446 13.4092 7.51265 13.7374ZM16.2501 10.75C15.786 10.75 15.3408 10.9344 15.0127 11.2626C14.6845 11.5908 14.5001 12.0359 14.5001 12.5C14.5001 12.9641 14.6845 13.4092 15.0126 13.7374C15.3408 14.0656 15.786 14.25 16.2501 14.25C16.7142 14.25 17.1593 14.0656 17.4875 13.7374C17.8157 13.4092 18.0001 12.9641 18.0001 12.5C18.0001 12.0359 17.8157 11.5908 17.4875 11.2626C17.1593 10.9344 16.7142 10.75 16.2501 10.75Z" fill="#777777" stroke="#777777"/>
<circle cx="22" cy="3" r="3" fill="#EC534A"/>
</svg>
