<svg width="196" height="82" viewBox="0 0 196 82" fill="none" xmlns="http://www.w3.org/2000/svg">
<path d="M0 28C0 12.536 12.536 0 28 0H196V32C196 59.6142 173.614 82 146 82H0V28Z" fill="url(#paint0_linear)"/>
<path d="M66.0134 32.06H67.4974L71.3614 42H69.7094L68.6594 39.298H64.8234L63.7874 42H62.1214L66.0134 32.06ZM68.3514 38.136L66.7554 33.782L65.1034 38.136H68.3514ZM71.7276 38.346C71.7276 37.646 71.8676 37.0113 72.1476 36.442C72.437 35.8633 72.829 35.406 73.3236 35.07C73.8183 34.7247 74.3876 34.552 75.0316 34.552C75.5916 34.552 76.0956 34.6967 76.5436 34.986C77.001 35.2753 77.3556 35.6347 77.6076 36.064V31.78H79.1476V40.264C79.1476 40.4413 79.1803 40.5673 79.2456 40.642C79.311 40.7167 79.4183 40.7587 79.5676 40.768V42C79.2783 42.0467 79.0543 42.07 78.8956 42.07C78.6063 42.07 78.359 41.986 78.1536 41.818C77.9576 41.65 77.855 41.4493 77.8456 41.216L77.8316 40.67C77.5516 41.1367 77.1736 41.5007 76.6976 41.762C76.2216 42.014 75.727 42.14 75.2136 42.14C74.7096 42.14 74.243 42.042 73.8136 41.846C73.3936 41.65 73.025 41.3747 72.7076 41.02C72.3996 40.6653 72.157 40.2593 71.9796 39.802C71.8116 39.3447 71.7276 38.8593 71.7276 38.346ZM77.6076 39.368V37.45C77.505 37.1513 77.337 36.8853 77.1036 36.652C76.8796 36.4093 76.623 36.218 76.3336 36.078C76.0536 35.938 75.7736 35.868 75.4936 35.868C75.167 35.868 74.8683 35.938 74.5976 36.078C74.3363 36.218 74.1076 36.4047 73.9116 36.638C73.725 36.8713 73.5803 37.1373 73.4776 37.436C73.375 37.7347 73.3236 38.0473 73.3236 38.374C73.3236 38.71 73.3796 39.0273 73.4916 39.326C73.6036 39.6153 73.7623 39.8767 73.9676 40.11C74.1823 40.334 74.425 40.5113 74.6956 40.642C74.9756 40.7633 75.279 40.824 75.6056 40.824C75.811 40.824 76.0163 40.7867 76.2216 40.712C76.4363 40.6373 76.637 40.5347 76.8236 40.404C77.0196 40.2733 77.183 40.1193 77.3136 39.942C77.4536 39.7647 77.5516 39.5733 77.6076 39.368ZM80.6417 38.346C80.6417 37.646 80.7817 37.0113 81.0617 36.442C81.351 35.8633 81.743 35.406 82.2377 35.07C82.7324 34.7247 83.3017 34.552 83.9457 34.552C84.5057 34.552 85.0097 34.6967 85.4577 34.986C85.915 35.2753 86.2697 35.6347 86.5217 36.064V31.78H88.0617V40.264C88.0617 40.4413 88.0944 40.5673 88.1597 40.642C88.225 40.7167 88.3324 40.7587 88.4817 40.768V42C88.1924 42.0467 87.9684 42.07 87.8097 42.07C87.5204 42.07 87.273 41.986 87.0677 41.818C86.8717 41.65 86.769 41.4493 86.7597 41.216L86.7457 40.67C86.4657 41.1367 86.0877 41.5007 85.6117 41.762C85.1357 42.014 84.641 42.14 84.1277 42.14C83.6237 42.14 83.157 42.042 82.7277 41.846C82.3077 41.65 81.939 41.3747 81.6217 41.02C81.3137 40.6653 81.071 40.2593 80.8937 39.802C80.7257 39.3447 80.6417 38.8593 80.6417 38.346ZM86.5217 39.368V37.45C86.419 37.1513 86.251 36.8853 86.0177 36.652C85.7937 36.4093 85.537 36.218 85.2477 36.078C84.9677 35.938 84.6877 35.868 84.4077 35.868C84.081 35.868 83.7824 35.938 83.5117 36.078C83.2504 36.218 83.0217 36.4047 82.8257 36.638C82.639 36.8713 82.4944 37.1373 82.3917 37.436C82.289 37.7347 82.2377 38.0473 82.2377 38.374C82.2377 38.71 82.2937 39.0273 82.4057 39.326C82.5177 39.6153 82.6764 39.8767 82.8817 40.11C83.0964 40.334 83.339 40.5113 83.6097 40.642C83.8897 40.7633 84.193 40.824 84.5197 40.824C84.725 40.824 84.9304 40.7867 85.1357 40.712C85.3504 40.6373 85.551 40.5347 85.7377 40.404C85.9337 40.2733 86.097 40.1193 86.2277 39.942C86.3677 39.7647 86.4657 39.5733 86.5217 39.368ZM97.5507 41.622C97.4201 41.6873 97.2567 41.7573 97.0607 41.832C96.8647 41.9067 96.6407 41.972 96.3887 42.028C96.1461 42.084 95.8941 42.112 95.6327 42.112C95.3154 42.112 95.0214 42.056 94.7507 41.944C94.4801 41.832 94.2607 41.6547 94.0927 41.412C93.9341 41.16 93.8547 40.838 93.8547 40.446V35.868H92.8887V34.678H93.8547V32.27H95.3947V34.678H96.9907V35.868H95.3947V39.956C95.4134 40.208 95.4927 40.3947 95.6327 40.516C95.7821 40.6373 95.9641 40.698 96.1787 40.698C96.3934 40.698 96.5987 40.6607 96.7947 40.586C96.9907 40.5113 97.1354 40.4507 97.2287 40.404L97.5507 41.622ZM101.812 42.14C101.233 42.14 100.715 42.042 100.258 41.846C99.8003 41.6407 99.4037 41.3607 99.0677 41.006C98.741 40.6513 98.489 40.25 98.3117 39.802C98.1343 39.3447 98.0457 38.8593 98.0457 38.346C98.0457 37.8327 98.1343 37.3473 98.3117 36.89C98.489 36.4327 98.741 36.0313 99.0677 35.686C99.4037 35.3313 99.8003 35.056 100.258 34.86C100.724 34.6547 101.242 34.552 101.812 34.552C102.381 34.552 102.894 34.6547 103.352 34.86C103.818 35.056 104.215 35.3313 104.542 35.686C104.878 36.0313 105.134 36.4327 105.312 36.89C105.489 37.3473 105.578 37.8327 105.578 38.346C105.578 38.8593 105.489 39.3447 105.312 39.802C105.134 40.25 104.878 40.6513 104.542 41.006C104.215 41.3607 103.818 41.6407 103.352 41.846C102.894 42.042 102.381 42.14 101.812 42.14ZM99.6277 38.36C99.6277 38.8267 99.7257 39.2467 99.9217 39.62C100.118 39.9933 100.379 40.2873 100.706 40.502C101.032 40.7167 101.401 40.824 101.812 40.824C102.213 40.824 102.577 40.7167 102.904 40.502C103.24 40.278 103.506 39.9793 103.702 39.606C103.898 39.2233 103.996 38.8033 103.996 38.346C103.996 37.8793 103.898 37.4593 103.702 37.086C103.506 36.7127 103.24 36.4187 102.904 36.204C102.577 35.98 102.213 35.868 101.812 35.868C101.401 35.868 101.032 35.98 100.706 36.204C100.379 36.428 100.118 36.7267 99.9217 37.1C99.7257 37.464 99.6277 37.884 99.6277 38.36ZM114.351 42.14C113.791 42.14 113.282 42.0093 112.825 41.748C112.377 41.4773 112.022 41.118 111.761 40.67V42H110.403V31.78H111.943V36.064C112.232 35.5973 112.591 35.2287 113.021 34.958C113.459 34.6873 113.973 34.552 114.561 34.552C115.046 34.552 115.489 34.6547 115.891 34.86C116.292 35.0653 116.633 35.3453 116.913 35.7C117.202 36.0547 117.421 36.4607 117.571 36.918C117.729 37.3753 117.809 37.8607 117.809 38.374C117.809 38.8873 117.72 39.3727 117.543 39.83C117.375 40.2873 117.132 40.6887 116.815 41.034C116.497 41.3793 116.129 41.65 115.709 41.846C115.298 42.042 114.845 42.14 114.351 42.14ZM113.945 40.824C114.281 40.824 114.589 40.7587 114.869 40.628C115.149 40.488 115.391 40.306 115.597 40.082C115.802 39.858 115.956 39.5967 116.059 39.298C116.171 38.9993 116.227 38.6913 116.227 38.374C116.227 37.9353 116.133 37.5247 115.947 37.142C115.769 36.7593 115.517 36.4513 115.191 36.218C114.864 35.9847 114.486 35.868 114.057 35.868C113.749 35.868 113.459 35.9427 113.189 36.092C112.918 36.232 112.675 36.4233 112.461 36.666C112.255 36.8993 112.083 37.1607 111.943 37.45V39.382C111.999 39.5967 112.097 39.7927 112.237 39.97C112.377 40.138 112.54 40.2873 112.727 40.418C112.913 40.5393 113.114 40.6373 113.329 40.712C113.543 40.7867 113.749 40.824 113.945 40.824ZM118.662 39.858C118.662 39.3913 118.792 38.9853 119.054 38.64C119.324 38.2853 119.693 38.0147 120.16 37.828C120.626 37.632 121.168 37.534 121.784 37.534C122.11 37.534 122.442 37.5573 122.778 37.604C123.123 37.6507 123.426 37.7253 123.688 37.828V37.366C123.688 36.8527 123.534 36.4513 123.226 36.162C122.918 35.8727 122.474 35.728 121.896 35.728C121.485 35.728 121.098 35.8027 120.734 35.952C120.37 36.092 119.982 36.2927 119.572 36.554L119.054 35.518C119.539 35.1913 120.024 34.9487 120.51 34.79C121.004 34.6313 121.522 34.552 122.064 34.552C123.044 34.552 123.814 34.8133 124.374 35.336C124.943 35.8493 125.228 36.582 125.228 37.534V40.264C125.228 40.4413 125.256 40.5673 125.312 40.642C125.377 40.7167 125.484 40.7587 125.634 40.768V42C125.494 42.028 125.368 42.0467 125.256 42.056C125.144 42.0653 125.05 42.07 124.976 42.07C124.649 42.07 124.402 41.9907 124.234 41.832C124.066 41.6733 123.968 41.4867 123.94 41.272L123.898 40.852C123.58 41.2627 123.174 41.58 122.68 41.804C122.185 42.028 121.686 42.14 121.182 42.14C120.696 42.14 120.262 42.042 119.88 41.846C119.497 41.6407 119.198 41.3653 118.984 41.02C118.769 40.6747 118.662 40.2873 118.662 39.858ZM123.324 40.306C123.436 40.1847 123.524 40.0633 123.59 39.942C123.655 39.8207 123.688 39.7133 123.688 39.62V38.78C123.426 38.6773 123.151 38.6027 122.862 38.556C122.572 38.5 122.288 38.472 122.008 38.472C121.448 38.472 120.99 38.584 120.636 38.808C120.29 39.032 120.118 39.34 120.118 39.732C120.118 39.9467 120.174 40.152 120.286 40.348C120.407 40.544 120.575 40.7027 120.79 40.824C121.014 40.9453 121.289 41.006 121.616 41.006C121.952 41.006 122.274 40.9407 122.582 40.81C122.89 40.6793 123.137 40.5113 123.324 40.306ZM129.994 42.07C129.499 42.07 129.047 41.972 128.636 41.776C128.225 41.5707 127.871 41.2953 127.572 40.95C127.283 40.6047 127.054 40.208 126.886 39.76C126.727 39.312 126.648 38.8407 126.648 38.346C126.648 37.8233 126.732 37.3333 126.9 36.876C127.068 36.4187 127.301 36.0173 127.6 35.672C127.908 35.3173 128.267 35.042 128.678 34.846C129.089 34.65 129.546 34.552 130.05 34.552C130.638 34.552 131.151 34.692 131.59 34.972C132.038 35.252 132.407 35.616 132.696 36.064V34.678H134.054V41.79C134.054 42.4993 133.881 43.1013 133.536 43.596C133.2 44.0907 132.738 44.4687 132.15 44.73C131.562 44.9913 130.899 45.122 130.162 45.122C129.35 45.122 128.678 44.982 128.146 44.702C127.614 44.422 127.161 44.0393 126.788 43.554L127.656 42.742C127.936 43.134 128.295 43.4327 128.734 43.638C129.182 43.8433 129.658 43.946 130.162 43.946C130.582 43.946 130.969 43.8667 131.324 43.708C131.688 43.5587 131.977 43.3207 132.192 42.994C132.407 42.6767 132.514 42.2753 132.514 41.79V40.67C132.253 41.1087 131.893 41.454 131.436 41.706C130.979 41.9487 130.498 42.07 129.994 42.07ZM130.498 40.824C130.731 40.824 130.955 40.7867 131.17 40.712C131.385 40.628 131.581 40.5207 131.758 40.39C131.945 40.25 132.103 40.096 132.234 39.928C132.365 39.7507 132.458 39.564 132.514 39.368V37.45C132.393 37.1327 132.22 36.8573 131.996 36.624C131.772 36.3813 131.52 36.1947 131.24 36.064C130.96 35.9333 130.675 35.868 130.386 35.868C130.05 35.868 129.747 35.9427 129.476 36.092C129.215 36.232 128.991 36.4233 128.804 36.666C128.617 36.8993 128.473 37.1653 128.37 37.464C128.267 37.7627 128.216 38.0707 128.216 38.388C128.216 38.724 128.272 39.0367 128.384 39.326C128.505 39.6153 128.669 39.8767 128.874 40.11C129.079 40.334 129.322 40.5113 129.602 40.642C129.882 40.7633 130.181 40.824 130.498 40.824Z" fill="white"/>
<defs>
<linearGradient id="paint0_linear" x1="14.7" y1="77.9" x2="75.886" y2="-51.1437" gradientUnits="userSpaceOnUse">
<stop stop-color="#26AD71"/>
<stop offset="1" stop-color="#32CB4B"/>
</linearGradient>
</defs>
</svg>
