<svg width="60" height="40" viewBox="0 0 60 40" fill="none" xmlns="http://www.w3.org/2000/svg">
<rect opacity="0.2" x="0.5" y="0.5" width="59" height="39" rx="19.5" stroke="#777777"/>
<path fill-rule="evenodd" clip-rule="evenodd" d="M37.875 20C37.875 19.8508 37.8157 19.7077 37.7102 19.6022C37.6048 19.4967 37.4617 19.4375 37.3125 19.4375H24.0454L27.5857 15.8982C27.6914 15.7926 27.7507 15.6494 27.7507 15.5C27.7507 15.3506 27.6914 15.2074 27.5857 15.1017C27.4801 14.9961 27.3369 14.9368 27.1875 14.9368C27.0381 14.9368 26.8949 14.9961 26.7892 15.1017L22.2892 19.6017C22.2369 19.654 22.1953 19.7161 22.1669 19.7844C22.1386 19.8527 22.124 19.926 22.124 20C22.124 20.074 22.1386 20.1472 22.1669 20.2156C22.1953 20.2839 22.2369 20.346 22.2892 20.3982L26.7892 24.8982C26.8949 25.0038 27.0381 25.0632 27.1875 25.0632C27.3369 25.0632 27.4801 25.0038 27.5857 24.8982C27.6914 24.7926 27.7507 24.6494 27.7507 24.5C27.7507 24.3506 27.6914 24.2073 27.5857 24.1017L24.0454 20.5625H37.3125C37.4617 20.5625 37.6048 20.5032 37.7102 20.3977C37.8157 20.2922 37.875 20.1492 37.875 20Z" fill="#777777"/>
</svg>
