<svg width="105" height="20" viewBox="0 0 105 20" fill="none" xmlns="http://www.w3.org/2000/svg">
<path d="M30.02 14V5.48H35.648V6.44H31.1V9.284H34.928V10.184H31.1V14H30.02ZM39.7031 8.66C39.1751 8.668 38.7071 8.804 38.2991 9.068C37.8991 9.324 37.6151 9.68 37.4471 10.136V14H36.3911V7.736H37.3751V9.188C37.5911 8.756 37.8751 8.408 38.2271 8.144C38.5871 7.872 38.9631 7.72 39.3551 7.688C39.4351 7.688 39.5031 7.688 39.5591 7.688C39.6151 7.688 39.6631 7.692 39.7031 7.7V8.66ZM43.3818 14.12C42.7578 14.12 42.2058 13.972 41.7258 13.676C41.2458 13.38 40.8698 12.984 40.5978 12.488C40.3258 11.992 40.1898 11.452 40.1898 10.868C40.1898 10.276 40.3258 9.736 40.5978 9.248C40.8698 8.76 41.2458 8.368 41.7258 8.072C42.2138 7.776 42.7698 7.628 43.3938 7.628C44.0258 7.628 44.5738 7.78 45.0378 8.084C45.5098 8.38 45.8738 8.772 46.1298 9.26C46.3938 9.74 46.5258 10.26 46.5258 10.82C46.5258 10.996 46.5178 11.132 46.5018 11.228H41.3058C41.3378 11.636 41.4498 12 41.6418 12.32C41.8418 12.632 42.0978 12.88 42.4098 13.064C42.7218 13.24 43.0578 13.328 43.4178 13.328C43.8018 13.328 44.1618 13.232 44.4978 13.04C44.8418 12.848 45.0778 12.596 45.2058 12.284L46.1178 12.536C45.9178 13 45.5698 13.38 45.0738 13.676C44.5778 13.972 44.0138 14.12 43.3818 14.12ZM41.2698 10.496H45.5418C45.5098 10.088 45.3938 9.728 45.1938 9.416C44.9938 9.104 44.7378 8.86 44.4258 8.684C44.1138 8.508 43.7698 8.42 43.3938 8.42C43.0258 8.42 42.6858 8.508 42.3738 8.684C42.0618 8.86 41.8058 9.104 41.6058 9.416C41.4138 9.728 41.3018 10.088 41.2698 10.496ZM50.4717 14.12C49.8477 14.12 49.2957 13.972 48.8157 13.676C48.3357 13.38 47.9597 12.984 47.6877 12.488C47.4157 11.992 47.2797 11.452 47.2797 10.868C47.2797 10.276 47.4157 9.736 47.6877 9.248C47.9597 8.76 48.3357 8.368 48.8157 8.072C49.3037 7.776 49.8597 7.628 50.4837 7.628C51.1157 7.628 51.6637 7.78 52.1277 8.084C52.5997 8.38 52.9637 8.772 53.2197 9.26C53.4837 9.74 53.6157 10.26 53.6157 10.82C53.6157 10.996 53.6077 11.132 53.5917 11.228H48.3957C48.4277 11.636 48.5397 12 48.7317 12.32C48.9317 12.632 49.1877 12.88 49.4997 13.064C49.8117 13.24 50.1477 13.328 50.5077 13.328C50.8917 13.328 51.2517 13.232 51.5877 13.04C51.9317 12.848 52.1677 12.596 52.2957 12.284L53.2077 12.536C53.0077 13 52.6597 13.38 52.1637 13.676C51.6677 13.972 51.1037 14.12 50.4717 14.12ZM48.3597 10.496H52.6317C52.5997 10.088 52.4837 9.728 52.2837 9.416C52.0837 9.104 51.8277 8.86 51.5157 8.684C51.2037 8.508 50.8597 8.42 50.4837 8.42C50.1157 8.42 49.7757 8.508 49.4637 8.684C49.1517 8.86 48.8957 9.104 48.6957 9.416C48.5037 9.728 48.3917 10.088 48.3597 10.496ZM59.9727 14.12C59.4527 14.12 58.9647 14.036 58.5087 13.868C58.0527 13.692 57.6607 13.432 57.3327 13.088L57.7407 12.344C58.1007 12.68 58.4607 12.92 58.8207 13.064C59.1807 13.208 59.5487 13.28 59.9247 13.28C60.3567 13.28 60.7087 13.2 60.9807 13.04C61.2527 12.872 61.3887 12.628 61.3887 12.308C61.3887 12.076 61.3167 11.904 61.1727 11.792C61.0367 11.68 60.8407 11.588 60.5847 11.516C60.3287 11.436 60.0247 11.348 59.6727 11.252C59.0247 11.068 58.5287 10.852 58.1847 10.604C57.8487 10.348 57.6807 9.976 57.6807 9.488C57.6807 8.896 57.9047 8.44 58.3527 8.12C58.8087 7.792 59.3887 7.628 60.0927 7.628C61.0367 7.628 61.7807 7.912 62.3247 8.48L61.8447 9.212C61.3567 8.708 60.7527 8.456 60.0327 8.456C59.8167 8.456 59.6047 8.484 59.3967 8.54C59.1887 8.588 59.0167 8.68 58.8807 8.816C58.7447 8.944 58.6767 9.128 58.6767 9.368C58.6767 9.664 58.7967 9.876 59.0367 10.004C59.2767 10.132 59.6287 10.264 60.0927 10.4C60.5647 10.536 60.9727 10.672 61.3167 10.808C61.6687 10.944 61.9407 11.12 62.1327 11.336C62.3247 11.552 62.4207 11.852 62.4207 12.236C62.4207 12.828 62.1967 13.292 61.7487 13.628C61.3007 13.956 60.7087 14.12 59.9727 14.12ZM69.12 14H68.064V10.496C68.064 9.856 67.948 9.376 67.716 9.056C67.492 8.736 67.168 8.576 66.744 8.576C66.472 8.576 66.196 8.648 65.916 8.792C65.644 8.936 65.404 9.132 65.196 9.38C64.988 9.62 64.836 9.9 64.74 10.22V14H63.684V5.24H64.74V9.08C64.988 8.632 65.324 8.28 65.748 8.024C66.18 7.76 66.644 7.628 67.14 7.628C67.636 7.628 68.028 7.744 68.316 7.976C68.604 8.208 68.808 8.524 68.928 8.924C69.056 9.316 69.12 9.76 69.12 10.256V14ZM70.7622 6.56V5.24H71.8182V6.56H70.7622ZM70.7622 14V7.736H71.8182V14H70.7622ZM76.8998 14.12C76.3878 14.12 75.9318 13.992 75.5318 13.736C75.1318 13.48 74.8158 13.156 74.5838 12.764V16.556H73.5278V7.736H74.4638V8.912C74.7118 8.528 75.0358 8.22 75.4358 7.988C75.8358 7.748 76.2718 7.628 76.7438 7.628C77.1758 7.628 77.5718 7.716 77.9318 7.892C78.2918 8.068 78.6038 8.308 78.8678 8.612C79.1318 8.916 79.3358 9.264 79.4798 9.656C79.6318 10.04 79.7078 10.444 79.7078 10.868C79.7078 11.46 79.5878 12.004 79.3478 12.5C79.1158 12.996 78.7878 13.392 78.3638 13.688C77.9398 13.976 77.4518 14.12 76.8998 14.12ZM76.5758 13.208C76.9918 13.208 77.3518 13.096 77.6558 12.872C77.9598 12.648 78.1958 12.356 78.3638 11.996C78.5398 11.636 78.6278 11.26 78.6278 10.868C78.6278 10.444 78.5318 10.056 78.3398 9.704C78.1558 9.352 77.8998 9.072 77.5718 8.864C77.2518 8.648 76.8878 8.54 76.4798 8.54C76.2318 8.54 75.9678 8.604 75.6878 8.732C75.4158 8.86 75.1758 9.032 74.9678 9.248C74.7678 9.456 74.6398 9.688 74.5838 9.944V11.732C74.7598 12.148 75.0278 12.5 75.3878 12.788C75.7558 13.068 76.1518 13.208 76.5758 13.208ZM84.3763 14.12C83.8643 14.12 83.4083 13.992 83.0083 13.736C82.6083 13.48 82.2923 13.156 82.0603 12.764V16.556H81.0043V7.736H81.9403V8.912C82.1883 8.528 82.5123 8.22 82.9123 7.988C83.3123 7.748 83.7483 7.628 84.2203 7.628C84.6523 7.628 85.0483 7.716 85.4083 7.892C85.7683 8.068 86.0803 8.308 86.3443 8.612C86.6083 8.916 86.8123 9.264 86.9563 9.656C87.1083 10.04 87.1843 10.444 87.1843 10.868C87.1843 11.46 87.0643 12.004 86.8243 12.5C86.5923 12.996 86.2643 13.392 85.8403 13.688C85.4163 13.976 84.9283 14.12 84.3763 14.12ZM84.0523 13.208C84.4683 13.208 84.8283 13.096 85.1323 12.872C85.4363 12.648 85.6723 12.356 85.8403 11.996C86.0163 11.636 86.1043 11.26 86.1043 10.868C86.1043 10.444 86.0083 10.056 85.8163 9.704C85.6323 9.352 85.3763 9.072 85.0483 8.864C84.7283 8.648 84.3643 8.54 83.9563 8.54C83.7083 8.54 83.4443 8.604 83.1643 8.732C82.8923 8.86 82.6523 9.032 82.4443 9.248C82.2443 9.456 82.1163 9.688 82.0603 9.944V11.732C82.2363 12.148 82.5043 12.5 82.8643 12.788C83.2323 13.068 83.6283 13.208 84.0523 13.208ZM88.4809 6.56V5.24H89.5369V6.56H88.4809ZM88.4809 14V7.736H89.5369V14H88.4809ZM96.6825 14H95.6265V10.496C95.6265 9.832 95.5225 9.348 95.3145 9.044C95.1145 8.732 94.8065 8.576 94.3905 8.576C94.1025 8.576 93.8145 8.648 93.5265 8.792C93.2465 8.936 92.9945 9.132 92.7705 9.38C92.5545 9.62 92.3985 9.9 92.3025 10.22V14H91.2465V7.736H92.2065V9.08C92.4545 8.64 92.8105 8.288 93.2745 8.024C93.7465 7.76 94.2585 7.628 94.8105 7.628C95.2985 7.628 95.6745 7.744 95.9385 7.976C96.2105 8.2 96.4025 8.512 96.5145 8.912C96.6265 9.304 96.6825 9.752 96.6825 10.256V14ZM100.821 14.072C100.253 14.072 99.7487 13.924 99.3087 13.628C98.8767 13.324 98.5367 12.928 98.2887 12.44C98.0487 11.952 97.9287 11.432 97.9287 10.88C97.9287 10.288 98.0487 9.748 98.2887 9.26C98.5367 8.764 98.8807 8.368 99.3207 8.072C99.7607 7.776 100.265 7.628 100.833 7.628C101.353 7.628 101.805 7.756 102.189 8.012C102.581 8.268 102.909 8.592 103.173 8.984V7.736H104.109V13.928C104.109 14.52 103.965 15.02 103.677 15.428C103.397 15.836 103.013 16.144 102.525 16.352C102.045 16.568 101.509 16.676 100.917 16.676C100.213 16.676 99.6367 16.552 99.1887 16.304C98.7407 16.056 98.3687 15.72 98.0727 15.296L98.6847 14.756C98.9327 15.124 99.2527 15.4 99.6447 15.584C100.045 15.768 100.469 15.86 100.917 15.86C101.301 15.86 101.653 15.788 101.973 15.644C102.301 15.508 102.561 15.296 102.753 15.008C102.953 14.72 103.053 14.36 103.053 13.928V12.824C102.821 13.208 102.501 13.512 102.093 13.736C101.693 13.96 101.269 14.072 100.821 14.072ZM101.145 13.208C101.441 13.208 101.725 13.14 101.997 13.004C102.269 12.868 102.497 12.692 102.681 12.476C102.873 12.26 102.997 12.036 103.053 11.804V10.004C102.885 9.58 102.613 9.232 102.237 8.96C101.861 8.68 101.465 8.54 101.049 8.54C100.625 8.54 100.257 8.656 99.9447 8.888C99.6407 9.12 99.4047 9.416 99.2367 9.776C99.0767 10.136 98.9967 10.512 98.9967 10.904C98.9967 11.32 99.0927 11.704 99.2847 12.056C99.4767 12.4 99.7327 12.68 100.053 12.896C100.381 13.104 100.745 13.208 101.145 13.208Z" fill="#4CBB5E"/>
<g clip-path="url(#clip0)">
<path d="M3.53467 3.68816C3.25853 3.68816 2.99418 3.90832 2.94424 4.17991L2.89902 4.42579C2.84908 4.69738 3.03245 4.91754 3.30859 4.91754H14.1836C14.4597 4.91754 14.6431 5.13771 14.5932 5.4093L13.0784 13.6462C13.0285 13.9178 12.7641 14.1379 12.488 14.1379H9.52733C9.29955 14.1379 9.13358 13.9841 9.08111 13.7784C8.85894 12.9075 8.09899 12.2939 7.07712 12.2939C6.02996 12.2939 5.02082 12.9383 4.48767 13.8435C4.38781 14.0131 4.20593 14.1379 4.02035 14.1379C3.79538 14.1379 3.64599 13.9586 3.68668 13.7373L4.08777 11.5562C4.13771 11.2846 3.95434 11.0645 3.6782 11.0645H3.4282C3.15206 11.0645 2.88771 11.2846 2.83777 11.5562L2.22736 14.8756C2.17741 15.1472 2.36078 15.3673 2.63693 15.3673H3.7226C3.95038 15.3673 4.11635 15.5212 4.16882 15.7268C4.39099 16.5977 5.15094 17.2114 6.17281 17.2114C7.19467 17.2114 8.18034 16.5977 8.7228 15.7268C8.85091 15.5212 9.07347 15.3673 9.30125 15.3673H13.7226C13.9504 15.3673 14.1164 15.5212 14.1688 15.7268C14.391 16.5977 15.1509 17.2114 16.1728 17.2114C17.1947 17.2114 18.1803 16.5977 18.7228 15.7268C18.8509 15.5212 19.0735 15.3673 19.3013 15.3673H20.3869C20.6631 15.3673 20.9274 15.1472 20.9774 14.8756L21.7914 10.4489C21.8029 10.3861 21.8022 10.324 21.7891 10.2657L21.7872 10.2574L21.2155 6.56922L21.2047 6.49057C21.1766 6.286 21.0092 6.14693 20.7911 6.14693H16.2075C15.9314 6.14693 15.748 5.92676 15.7979 5.65517L16.0692 4.17991C16.1192 3.90832 15.9358 3.68816 15.6597 3.68816H3.53467ZM3.70751 6.14693C3.43137 6.14693 3.16702 6.36709 3.11708 6.63868L3.07186 6.88456C3.02192 7.15615 3.20529 7.37631 3.48143 7.37631H8.10643C8.38258 7.37631 8.64692 7.15615 8.69686 6.88456L8.74208 6.63868C8.79202 6.36709 8.60865 6.14693 8.33251 6.14693H3.70751ZM15.391 7.86807C15.4409 7.59648 15.7053 7.37631 15.9814 7.37631H19.6724C19.8873 7.37631 20.0533 7.51133 20.0848 7.71169L20.5151 10.4505C20.5231 10.5009 20.5221 10.5537 20.5123 10.6069L19.9367 13.7373C19.896 13.9586 19.6806 14.1379 19.4557 14.1379C19.2701 14.1379 19.1341 14.0131 19.0966 13.8435C18.8964 12.9383 18.1243 12.2939 17.0771 12.2939C15.9344 12.2939 14.837 13.0612 14.354 14.0975C14.3429 14.1212 14.318 14.1379 14.293 14.1379C14.2626 14.1379 14.2425 14.1137 14.2479 14.0839L15.391 7.86807ZM3.88036 8.6057C3.60421 8.6057 3.33987 8.82586 3.28992 9.09745L3.24471 9.34333C3.19477 9.61492 3.37814 9.83508 3.65428 9.83508H6.40428C6.68042 9.83508 6.94477 9.61492 6.99471 9.34333L7.03992 9.09745C7.08987 8.82586 6.9065 8.6057 6.63036 8.6057H3.88036ZM6.85104 13.5232C7.54917 13.5232 8.00123 14.066 7.87497 14.7526C7.7487 15.4392 7.09701 15.982 6.39889 15.982C5.70076 15.982 5.2487 15.4392 5.37497 14.7526C5.50123 14.066 6.15292 13.5232 6.85104 13.5232ZM16.851 13.5232C17.5492 13.5232 18.0012 14.066 17.875 14.7526C17.7487 15.4392 17.097 15.982 16.3989 15.982C15.7008 15.982 15.2487 15.4392 15.375 14.7526C15.5012 14.066 16.1529 13.5232 16.851 13.5232Z" fill="#4CBB5E" stroke="white" stroke-width="0.2"/>
</g>
<defs>
<clipPath id="clip0">
<rect width="20" height="20" fill="white" transform="matrix(1 0 -0.180862 0.983508 3.71289 0)"/>
</clipPath>
</defs>
</svg>
