<svg width="10" height="10" viewBox="0 0 10 10" fill="none" xmlns="http://www.w3.org/2000/svg">
<path d="M3.09811 3.125C2.98394 3.12499 2.87195 3.15626 2.77429 3.21541C2.67663 3.27456 2.59704 3.35933 2.54416 3.46052C2.49128 3.56171 2.46713 3.67545 2.47433 3.7894C2.48152 3.90335 2.5198 4.01314 2.58499 4.10688L4.23062 6.47187C4.31697 6.5959 4.43204 6.69722 4.566 6.76718C4.69997 6.83714 4.84886 6.87368 4.99999 6.87368C5.15112 6.87368 5.30002 6.83714 5.43398 6.76718C5.56794 6.69722 5.68301 6.5959 5.76937 6.47187L7.41499 4.10688C7.48018 4.01314 7.51846 3.90335 7.52565 3.7894C7.53285 3.67545 7.5087 3.56171 7.45582 3.46052C7.40294 3.35933 7.32335 3.27456 7.22569 3.21541C7.12803 3.15626 7.01604 3.12499 6.90187 3.125H3.09811Z" fill="#777777"/>
</svg>
