<svg width="81" height="78" viewBox="0 0 81 78" fill="none" xmlns="http://www.w3.org/2000/svg">
<circle cx="19.5" cy="35.5" r="19.5" fill="#A1E2CB"/>
<path fill-rule="evenodd" clip-rule="evenodd" d="M29 52H55C55.862 52 56.6886 52.3424 57.2981 52.9519C57.9076 53.5614 58.25 54.388 58.25 55.25C58.25 56.112 57.9076 56.9386 57.2981 57.5481C56.6886 58.1576 55.862 58.5 55 58.5H25.75C24.8881 58.5 24.0614 58.1576 23.4519 57.5481C22.8424 56.9386 22.5 56.112 22.5 55.25V13H19.25C18.3881 13 17.5614 12.6576 16.9519 12.0481C16.3424 11.4386 16 10.612 16 9.75C16 8.88805 16.3424 8.0614 16.9519 7.4519C17.5614 6.84241 18.3881 6.5 19.25 6.5H25.75C26.612 6.5 27.4386 6.84241 28.0481 7.4519C28.6576 8.0614 29 8.88805 29 9.75V39H57.5188L61.5 22.75V16.2532C65.2213 16.2532 68 19.1587 68 22.75C68 23.2245 67.9448 23.6958 67.8375 24.1605L64.0968 40.4105C63.4143 43.3843 60.6778 45.5 57.5188 45.5H29.2373L29 45.4967V52ZM27.375 71.5C26.0821 71.5 24.8421 70.9864 23.9279 70.0721C23.0136 69.1579 22.5 67.9179 22.5 66.625C22.5 65.3321 23.0136 64.0921 23.9279 63.1779C24.8421 62.2636 26.0821 61.75 27.375 61.75C28.668 61.75 29.9079 62.2636 30.8222 63.1779C31.7364 64.0921 32.25 65.3321 32.25 66.625C32.25 67.9179 31.7364 69.1579 30.8222 70.0721C29.9079 70.9864 28.668 71.5 27.375 71.5V71.5ZM56.625 71.5C55.3321 71.5 54.0921 70.9864 53.1779 70.0721C52.2636 69.1579 51.75 67.9179 51.75 66.625C51.75 65.3321 52.2636 64.0921 53.1779 63.1779C54.0921 62.2636 55.3321 61.75 56.625 61.75C57.918 61.75 59.1579 62.2636 60.0722 63.1779C60.9864 64.0921 61.5 65.3321 61.5 66.625C61.5 67.9179 60.9864 69.1579 60.0722 70.0721C59.1579 70.9864 57.918 71.5 56.625 71.5ZM48.5 16.25H51.75C52.612 16.25 53.4386 16.5924 54.0481 17.2019C54.6576 17.8114 55 18.638 55 19.5C55 20.362 54.6576 21.1886 54.0481 21.7981C53.4386 22.4076 52.612 22.75 51.75 22.75H48.5V26C48.5 26.862 48.1576 27.6886 47.5481 28.2981C46.9386 28.9076 46.112 29.25 45.25 29.25C44.3881 29.25 43.5614 28.9076 42.9519 28.2981C42.3424 27.6886 42 26.862 42 26V22.75H38.75C37.8881 22.75 37.0614 22.4076 36.4519 21.7981C35.8424 21.1886 35.5 20.362 35.5 19.5C35.5 18.638 35.8424 17.8114 36.4519 17.2019C37.0614 16.5924 37.8881 16.25 38.75 16.25H42V13C42 12.138 42.3424 11.3114 42.9519 10.7019C43.5614 10.0924 44.3881 9.75 45.25 9.75C46.112 9.75 46.9386 10.0924 47.5481 10.7019C48.1576 11.3114 48.5 12.138 48.5 13V16.25Z" fill="#194B38"/>
</svg>
