<svg width="375" height="131" viewBox="0 0 375 131" fill="none" xmlns="http://www.w3.org/2000/svg">
<g clip-path="url(#clip0)">
<path fill-rule="evenodd" clip-rule="evenodd" d="M347.226 21.7809C352.411 31.5339 360.954 41 372 41H440C451.046 41 460 49.9543 460 61V111C460 122.046 451.046 131 440 131H-81C-92.0457 131 -101 122.046 -101 111V61C-101 49.9543 -92.0457 41 -81 41H250C261.046 41 269.589 31.5339 274.774 21.7809C281.663 8.82306 295.301 0 311 0C326.699 0 340.337 8.82306 347.226 21.7809Z" fill="white"/>
<g filter="url(#filter0_dddd)">
<circle cx="311" cy="41" r="32" fill="url(#paint0_linear)"/>
</g>
<path d="M295.619 95V85.06H299.791C300.239 85.06 300.65 85.1533 301.023 85.34C301.406 85.5267 301.732 85.774 302.003 86.082C302.283 86.39 302.498 86.7353 302.647 87.118C302.796 87.5007 302.871 87.8927 302.871 88.294C302.871 88.854 302.745 89.3813 302.493 89.876C302.241 90.3707 301.891 90.772 301.443 91.08C300.995 91.388 300.472 91.542 299.875 91.542H297.187V95H295.619ZM297.187 90.156H299.777C300.216 90.156 300.575 89.9787 300.855 89.624C301.135 89.2693 301.275 88.826 301.275 88.294C301.275 87.93 301.2 87.6127 301.051 87.342C300.902 87.062 300.706 86.8427 300.463 86.684C300.23 86.5253 299.973 86.446 299.693 86.446H297.187V90.156ZM307.327 95.14C306.571 95.14 305.908 94.9673 305.339 94.622C304.77 94.2767 304.326 93.8193 304.009 93.25C303.692 92.6713 303.533 92.0413 303.533 91.36C303.533 90.6693 303.692 90.0347 304.009 89.456C304.326 88.8773 304.77 88.4153 305.339 88.07C305.908 87.7247 306.576 87.552 307.341 87.552C308.106 87.552 308.769 87.7293 309.329 88.084C309.889 88.4293 310.318 88.8867 310.617 89.456C310.925 90.0253 311.079 90.6367 311.079 91.29C311.079 91.5233 311.065 91.71 311.037 91.85H305.171C305.199 92.2793 305.316 92.6573 305.521 92.984C305.736 93.3013 306.002 93.5533 306.319 93.74C306.646 93.9173 307 94.006 307.383 94.006C307.794 94.006 308.181 93.9033 308.545 93.698C308.909 93.4927 309.161 93.222 309.301 92.886L310.617 93.264C310.365 93.8147 309.945 94.2673 309.357 94.622C308.778 94.9673 308.102 95.14 307.327 95.14ZM305.129 90.828H309.553C309.516 90.408 309.394 90.0393 309.189 89.722C308.984 89.3953 308.718 89.1433 308.391 88.966C308.074 88.7793 307.719 88.686 307.327 88.686C306.944 88.686 306.59 88.7793 306.263 88.966C305.946 89.1433 305.684 89.3953 305.479 89.722C305.274 90.0393 305.157 90.408 305.129 90.828ZM316.451 89.008C315.854 89.0267 315.322 89.1667 314.855 89.428C314.398 89.68 314.071 90.044 313.875 90.52V95H312.335V87.678H313.763V89.316C314.015 88.812 314.346 88.4107 314.757 88.112C315.168 87.804 315.602 87.636 316.059 87.608C316.143 87.608 316.218 87.608 316.283 87.608C316.348 87.608 316.404 87.6127 316.451 87.622V89.008ZM317.991 89.05H317.011V87.86H317.991V87.566C317.991 87.062 318.099 86.586 318.313 86.138C318.528 85.69 318.845 85.3307 319.265 85.06C319.695 84.78 320.217 84.64 320.833 84.64C321.356 84.64 321.823 84.724 322.233 84.892C322.653 85.06 323.017 85.2467 323.325 85.452L322.695 86.6C322.481 86.4133 322.215 86.2593 321.897 86.138C321.589 86.0167 321.267 85.956 320.931 85.956C320.605 85.956 320.339 86.0307 320.133 86.18C319.928 86.3293 319.774 86.5253 319.671 86.768C319.578 87.0107 319.531 87.2627 319.531 87.524V87.86H323.367V95H321.827V89.05H319.531V95H317.991V89.05ZM325.228 84.78H326.768V92.886C326.768 93.2593 326.824 93.4973 326.936 93.6C327.048 93.7027 327.188 93.754 327.356 93.754C327.543 93.754 327.72 93.7353 327.888 93.698C328.056 93.6607 328.196 93.614 328.308 93.558L328.532 94.776C328.308 94.8693 328.042 94.9487 327.734 95.014C327.426 95.0793 327.151 95.112 326.908 95.112C326.385 95.112 325.975 94.9673 325.676 94.678C325.377 94.3793 325.228 93.9687 325.228 93.446V84.78Z" fill="#777777"/>
<path d="M311.5 39.0416C309.146 39.0416 307.229 37.1251 307.229 34.7708C307.229 32.4166 309.146 30.5 311.5 30.5C313.854 30.5 315.771 32.4166 315.771 34.7708C315.771 37.1251 313.854 39.0416 311.5 39.0416ZM318.375 49.4583L317.125 49.4583L304.625 49.4583C303.474 49.4583 302.542 48.5256 302.542 47.375C302.542 45.4947 303.299 44.1636 304.507 43.2884C305.734 42.4005 307.461 41.9583 309.417 41.9583H313.583C315.539 41.9583 317.266 42.4005 318.492 43.2884C319.701 44.1636 320.458 45.4947 320.458 47.375C320.458 48.5256 319.526 49.4583 318.375 49.4583Z" fill="white" stroke="white" stroke-width="0.833333"/>
<path d="M224.5 74.25H225V73.75V72.5C225 71.3065 225.474 70.1619 226.318 69.318C227.162 68.4741 228.306 68 229.5 68C230.693 68 231.838 68.4741 232.682 69.318C233.526 70.1619 234 71.3065 234 72.5V73.75V74.25H234.5H235.75H235.75C235.935 74.25 236.113 74.3181 236.25 74.4412C236.388 74.5644 236.475 74.734 236.495 74.9175L236.496 74.9177L237.745 86.1675C237.746 86.1676 237.746 86.1676 237.746 86.1677C237.757 86.2725 237.746 86.3785 237.714 86.4788C237.682 86.5793 237.629 86.6718 237.559 86.7503L237.931 87.0839L237.559 86.7503C237.488 86.8289 237.402 86.8917 237.306 86.9348C237.21 86.9778 237.105 87 237 87H237H222H222C221.894 87 221.79 86.9778 221.694 86.9348C221.598 86.8917 221.512 86.8289 221.441 86.7503C221.371 86.6718 221.318 86.5793 221.286 86.4788C221.253 86.3784 221.243 86.2723 221.254 86.1675L222.504 74.9177L222.504 74.9175C222.525 74.734 222.612 74.5644 222.75 74.4412C222.887 74.3181 223.065 74.25 223.25 74.25H223.25H224.5ZM232 74.25H232.5V73.75V72.5C232.5 71.7044 232.184 70.9413 231.621 70.3787C231.059 69.8161 230.296 69.5 229.5 69.5C228.704 69.5 227.941 69.8161 227.379 70.3787C226.816 70.9413 226.5 71.7044 226.5 72.5V73.75V74.25H227H232ZM224.513 78.7374L224.816 78.4344L224.513 78.7374C224.841 79.0656 225.286 79.25 225.75 79.25C226.214 79.25 226.659 79.0656 226.987 78.7374C227.316 78.4092 227.5 77.9641 227.5 77.5C227.5 77.0359 227.316 76.5908 226.987 76.2626C226.659 75.9344 226.214 75.75 225.75 75.75C225.286 75.75 224.841 75.9344 224.513 76.2626L224.816 76.5656L224.513 76.2626C224.184 76.5908 224 77.0359 224 77.5C224 77.9641 224.184 78.4092 224.513 78.7374ZM233.25 75.75C232.786 75.75 232.341 75.9344 232.013 76.2626C231.684 76.5908 231.5 77.0359 231.5 77.5C231.5 77.9641 231.684 78.4092 232.013 78.7374C232.341 79.0656 232.786 79.25 233.25 79.25C233.714 79.25 234.159 79.0656 234.487 78.7374C234.816 78.4092 235 77.9641 235 77.5C235 77.0359 234.816 76.5908 234.487 76.2626C234.159 75.9344 233.714 75.75 233.25 75.75Z" fill="#777777" stroke="#777777"/>
<path d="M162.672 88.7516L157.998 84.0781C157.787 83.8672 157.502 83.75 157.202 83.75H156.438C157.731 82.0953 158.5 80.0141 158.5 77.75C158.5 72.3641 154.136 68 148.75 68C143.364 68 139 72.3641 139 77.75C139 83.1359 143.364 87.5 148.75 87.5C151.014 87.5 153.095 86.7313 154.75 85.4375V86.2016C154.75 86.5016 154.867 86.7875 155.078 86.9984L159.752 91.6719C160.192 92.1125 160.905 92.1125 161.341 91.6719L162.667 90.3453C163.108 89.9047 163.108 89.1922 162.672 88.7516ZM148.75 83.75C145.436 83.75 142.75 81.0688 142.75 77.75C142.75 74.4359 145.431 71.75 148.75 71.75C152.064 71.75 154.75 74.4312 154.75 77.75C154.75 81.0641 152.069 83.75 148.75 83.75Z" fill="#777777"/>
<path d="M65 68C58.373 68 53 73.375 53 80C53 86.6289 58.373 92 65 92C71.627 92 77 86.6289 77 80C77 73.375 71.627 68 65 68ZM65 73.3226C66.1224 73.3226 67.0323 74.2325 67.0323 75.3548C67.0323 76.4772 66.1224 77.3871 65 77.3871C63.8776 77.3871 62.9677 76.4772 62.9677 75.3548C62.9677 74.2325 63.8776 73.3226 65 73.3226ZM67.7097 85.6129C67.7097 85.9336 67.4497 86.1935 67.129 86.1935H62.871C62.5503 86.1935 62.2903 85.9336 62.2903 85.6129V84.4516C62.2903 84.131 62.5503 83.871 62.871 83.871H63.4516V80.7742H62.871C62.5503 80.7742 62.2903 80.5142 62.2903 80.1935V79.0323C62.2903 78.7116 62.5503 78.4516 62.871 78.4516H65.9677C66.2884 78.4516 66.5484 78.7116 66.5484 79.0323V83.871H67.129C67.4497 83.871 67.7097 84.131 67.7097 84.4516V85.6129Z" fill="#777777"/>
</g>
<defs>
<filter id="filter0_dddd" x="214" y="-20" width="194" height="194" filterUnits="userSpaceOnUse" color-interpolation-filters="sRGB">
<feFlood flood-opacity="0" result="BackgroundImageFix"/>
<feColorMatrix in="SourceAlpha" type="matrix" values="0 0 0 0 0 0 0 0 0 0 0 0 0 0 0 0 0 0 127 0"/>
<feOffset dy="1.575"/>
<feGaussianBlur stdDeviation="1.87891"/>
<feColorMatrix type="matrix" values="0 0 0 0 0.211765 0 0 0 0 0.572549 0 0 0 0 0.27451 0 0 0 0.0585 0"/>
<feBlend mode="normal" in2="BackgroundImageFix" result="effect1_dropShadow"/>
<feColorMatrix in="SourceAlpha" type="matrix" values="0 0 0 0 0 0 0 0 0 0 0 0 0 0 0 0 0 0 127 0"/>
<feOffset dy="7.2"/>
<feGaussianBlur stdDeviation="5.28125"/>
<feColorMatrix type="matrix" values="0 0 0 0 0.211765 0 0 0 0 0.572549 0 0 0 0 0.27451 0 0 0 0.09 0"/>
<feBlend mode="normal" in2="effect1_dropShadow" result="effect2_dropShadow"/>
<feColorMatrix in="SourceAlpha" type="matrix" values="0 0 0 0 0 0 0 0 0 0 0 0 0 0 0 0 0 0 127 0"/>
<feOffset dy="18.225"/>
<feGaussianBlur stdDeviation="14.168"/>
<feColorMatrix type="matrix" values="0 0 0 0 0.211765 0 0 0 0 0.572549 0 0 0 0 0.27451 0 0 0 0.1215 0"/>
<feBlend mode="normal" in2="effect2_dropShadow" result="effect3_dropShadow"/>
<feColorMatrix in="SourceAlpha" type="matrix" values="0 0 0 0 0 0 0 0 0 0 0 0 0 0 0 0 0 0 127 0"/>
<feOffset dy="36"/>
<feGaussianBlur stdDeviation="32.5"/>
<feColorMatrix type="matrix" values="0 0 0 0 0.211765 0 0 0 0 0.572549 0 0 0 0 0.27451 0 0 0 0.18 0"/>
<feBlend mode="normal" in2="effect3_dropShadow" result="effect4_dropShadow"/>
<feBlend mode="normal" in="SourceGraphic" in2="effect4_dropShadow" result="shape"/>
</filter>
<linearGradient id="paint0_linear" x1="283.8" y1="69.8" x2="345" y2="15.8" gradientUnits="userSpaceOnUse">
<stop stop-color="#26AD71"/>
<stop offset="1" stop-color="#32CB4B"/>
</linearGradient>
<clipPath id="clip0">
<rect width="375" height="131" fill="white"/>
</clipPath>
</defs>
</svg>
