<svg width="375" height="131" viewBox="0 0 375 131" fill="none" xmlns="http://www.w3.org/2000/svg">
<g clip-path="url(#clip0)">
<path fill-rule="evenodd" clip-rule="evenodd" d="M265.226 21.7809C270.411 31.5339 278.954 41 290 41H440C451.046 41 460 49.9543 460 61V111C460 122.046 451.046 131 440 131H-81C-92.0457 131 -101 122.046 -101 111V61C-101 49.9543 -92.0457 41 -81 41H168C179.046 41 187.589 31.5339 192.774 21.7809C199.663 8.82306 213.301 0 229 0C244.699 0 258.337 8.82306 265.226 21.7809Z" fill="white"/>
<g filter="url(#filter0_dddd)">
<circle cx="229" cy="41" r="32" fill="url(#paint0_linear)"/>
</g>
<path d="M199.617 89.96C199.617 89.3533 199.724 88.756 199.939 88.168C200.154 87.58 200.466 87.048 200.877 86.572C201.297 86.096 201.801 85.718 202.389 85.438C202.986 85.1487 203.668 85.004 204.433 85.004C205.329 85.004 206.104 85.2047 206.757 85.606C207.41 86.0073 207.896 86.53 208.213 87.174L206.981 88C206.794 87.5987 206.556 87.286 206.267 87.062C205.987 86.8287 205.679 86.6653 205.343 86.572C205.016 86.4693 204.694 86.418 204.377 86.418C203.854 86.418 203.397 86.5253 203.005 86.74C202.613 86.9453 202.282 87.2207 202.011 87.566C201.75 87.9113 201.549 88.2987 201.409 88.728C201.278 89.1573 201.213 89.5867 201.213 90.016C201.213 90.66 201.348 91.262 201.619 91.822C201.899 92.3727 202.277 92.8207 202.753 93.166C203.238 93.502 203.794 93.67 204.419 93.67C204.736 93.67 205.068 93.614 205.413 93.502C205.758 93.39 206.076 93.2173 206.365 92.984C206.654 92.7413 206.888 92.424 207.065 92.032L208.367 92.774C208.162 93.2687 207.84 93.6887 207.401 94.034C206.972 94.3793 206.486 94.6407 205.945 94.818C205.413 94.9953 204.886 95.084 204.363 95.084C203.663 95.084 203.024 94.9393 202.445 94.65C201.866 94.3513 201.367 93.9593 200.947 93.474C200.527 92.9793 200.2 92.4287 199.967 91.822C199.734 91.206 199.617 90.5853 199.617 89.96ZM212.898 95.14C212.132 95.14 211.465 94.9673 210.896 94.622C210.336 94.2673 209.902 93.8053 209.594 93.236C209.286 92.6573 209.132 92.0273 209.132 91.346C209.132 90.6647 209.286 90.0393 209.594 89.47C209.911 88.8913 210.35 88.4293 210.91 88.084C211.479 87.7293 212.142 87.552 212.898 87.552C213.654 87.552 214.312 87.7293 214.872 88.084C215.441 88.4293 215.88 88.8913 216.188 89.47C216.505 90.0393 216.664 90.6647 216.664 91.346C216.664 92.0273 216.51 92.6573 216.202 93.236C215.894 93.8053 215.455 94.2673 214.886 94.622C214.326 94.9673 213.663 95.14 212.898 95.14ZM210.714 91.36C210.714 91.8267 210.812 92.2467 211.008 92.62C211.204 92.9933 211.465 93.2873 211.792 93.502C212.118 93.7167 212.487 93.824 212.898 93.824C213.299 93.824 213.663 93.7167 213.99 93.502C214.326 93.278 214.592 92.9793 214.788 92.606C214.984 92.2327 215.082 91.8127 215.082 91.346C215.082 90.8793 214.984 90.4593 214.788 90.086C214.592 89.7127 214.326 89.4187 213.99 89.204C213.663 88.98 213.299 88.868 212.898 88.868C212.496 88.868 212.128 88.98 211.792 89.204C211.465 89.4187 211.204 89.7173 211.008 90.1C210.812 90.4733 210.714 90.8933 210.714 91.36ZM229.229 95H227.689V90.898C227.689 90.226 227.577 89.7313 227.353 89.414C227.129 89.0873 226.803 88.924 226.373 88.924C225.944 88.924 225.543 89.0873 225.169 89.414C224.805 89.7313 224.549 90.1467 224.399 90.66V95H222.859V90.898C222.859 90.2073 222.747 89.708 222.523 89.4C222.299 89.0827 221.977 88.924 221.557 88.924C221.128 88.924 220.727 89.0827 220.353 89.4C219.989 89.7173 219.728 90.1327 219.569 90.646V95H218.029V87.678H219.429V89.148C219.709 88.6347 220.087 88.2427 220.563 87.972C221.039 87.692 221.581 87.552 222.187 87.552C222.794 87.552 223.27 87.7107 223.615 88.028C223.97 88.3453 224.189 88.742 224.273 89.218C224.908 88.1073 225.827 87.552 227.031 87.552C227.61 87.552 228.058 87.692 228.375 87.972C228.693 88.2427 228.912 88.6067 229.033 89.064C229.164 89.512 229.229 90.002 229.229 90.534V95ZM235.162 95.14C234.574 95.14 234.056 95 233.608 94.72C233.16 94.44 232.805 94.076 232.544 93.628V97.982H231.004V87.678H232.362V88.994C232.642 88.5553 233.006 88.2053 233.454 87.944C233.902 87.6827 234.401 87.552 234.952 87.552C235.624 87.552 236.217 87.7293 236.73 88.084C237.253 88.4293 237.663 88.8913 237.962 89.47C238.261 90.0393 238.41 90.66 238.41 91.332C238.41 92.0413 238.27 92.6853 237.99 93.264C237.71 93.8333 237.327 94.2907 236.842 94.636C236.357 94.972 235.797 95.14 235.162 95.14ZM234.658 93.824C235.097 93.824 235.475 93.7073 235.792 93.474C236.119 93.2313 236.371 92.9233 236.548 92.55C236.735 92.1673 236.828 91.7613 236.828 91.332C236.828 90.884 236.725 90.4733 236.52 90.1C236.324 89.7267 236.053 89.428 235.708 89.204C235.372 88.98 234.985 88.868 234.546 88.868C234.285 88.868 234.009 88.9333 233.72 89.064C233.44 89.1947 233.193 89.3673 232.978 89.582C232.763 89.7967 232.619 90.0393 232.544 90.31V92.228C232.731 92.676 233.015 93.054 233.398 93.362C233.79 93.67 234.21 93.824 234.658 93.824ZM243.911 89.008C243.314 89.0267 242.782 89.1667 242.315 89.428C241.858 89.68 241.531 90.044 241.335 90.52V95H239.795V87.678H241.223V89.316C241.475 88.812 241.806 88.4107 242.217 88.112C242.628 87.804 243.062 87.636 243.519 87.608C243.603 87.608 243.678 87.608 243.743 87.608C243.808 87.608 243.864 87.6127 243.911 87.622V89.008ZM244.486 92.858C244.486 92.3913 244.616 91.9853 244.878 91.64C245.139 91.2853 245.503 91.0147 245.97 90.828C246.446 90.632 246.992 90.534 247.608 90.534C247.934 90.534 248.266 90.562 248.602 90.618C248.947 90.6647 249.25 90.7347 249.512 90.828V90.366C249.512 89.8527 249.358 89.4513 249.05 89.162C248.742 88.8727 248.298 88.728 247.72 88.728C247.318 88.728 246.931 88.798 246.558 88.938C246.184 89.078 245.797 89.2833 245.396 89.554L244.878 88.518C245.363 88.2007 245.848 87.9627 246.334 87.804C246.828 87.636 247.346 87.552 247.888 87.552C248.868 87.552 249.638 87.8133 250.198 88.336C250.767 88.8493 251.052 89.582 251.052 90.534V93.264C251.052 93.4413 251.08 93.5673 251.136 93.642C251.201 93.7167 251.308 93.7587 251.458 93.768V95C251.318 95.028 251.192 95.0467 251.08 95.056C250.968 95.0653 250.874 95.07 250.8 95.07C250.464 95.07 250.212 94.9907 250.044 94.832C249.885 94.664 249.792 94.4773 249.764 94.272L249.722 93.852C249.404 94.2627 248.998 94.58 248.504 94.804C248.009 95.028 247.51 95.14 247.006 95.14C246.52 95.14 246.086 95.042 245.704 94.846C245.321 94.6407 245.022 94.3653 244.808 94.02C244.593 93.6747 244.486 93.2873 244.486 92.858ZM249.148 93.306C249.39 93.0633 249.512 92.8347 249.512 92.62V91.78C248.961 91.5747 248.401 91.472 247.832 91.472C247.272 91.472 246.814 91.5887 246.46 91.822C246.114 92.046 245.942 92.3493 245.942 92.732C245.942 93.0493 246.068 93.3433 246.32 93.614C246.581 93.8753 246.954 94.006 247.44 94.006C247.766 94.006 248.084 93.9407 248.392 93.81C248.7 93.6793 248.952 93.5113 249.148 93.306ZM255.524 95.14C254.908 95.14 254.325 95.0373 253.774 94.832C253.223 94.6267 252.752 94.328 252.36 93.936L252.934 92.9C253.354 93.2733 253.774 93.544 254.194 93.712C254.614 93.88 255.039 93.964 255.468 93.964C255.897 93.964 256.247 93.8847 256.518 93.726C256.789 93.558 256.924 93.3153 256.924 92.998C256.924 92.774 256.854 92.6013 256.714 92.48C256.574 92.3587 256.369 92.2607 256.098 92.186C255.837 92.1113 255.519 92.018 255.146 91.906C254.623 91.7473 254.185 91.584 253.83 91.416C253.475 91.2387 253.209 91.024 253.032 90.772C252.855 90.52 252.766 90.198 252.766 89.806C252.766 89.0967 253.032 88.546 253.564 88.154C254.096 87.7527 254.791 87.552 255.65 87.552C256.182 87.552 256.672 87.636 257.12 87.804C257.577 87.9627 257.979 88.2147 258.324 88.56L257.666 89.582C257.031 89.0033 256.331 88.714 255.566 88.714C255.23 88.714 254.917 88.7793 254.628 88.91C254.348 89.0407 254.208 89.2833 254.208 89.638C254.208 89.9367 254.334 90.1513 254.586 90.282C254.838 90.4127 255.211 90.5527 255.706 90.702C256.266 90.87 256.747 91.038 257.148 91.206C257.559 91.3647 257.871 91.5747 258.086 91.836C258.31 92.088 258.422 92.438 258.422 92.886C258.422 93.5953 258.156 94.1507 257.624 94.552C257.092 94.944 256.392 95.14 255.524 95.14Z" fill="#777777"/>
<path d="M224.5 38.25H225V37.75V36.5C225 35.3065 225.474 34.1619 226.318 33.318C227.162 32.4741 228.307 32 229.5 32C230.693 32 231.838 32.4741 232.682 33.318C233.526 34.1619 234 35.3065 234 36.5V37.75V38.25H234.5H235.75H235.75C235.935 38.25 236.113 38.3181 236.25 38.4412C236.388 38.5644 236.475 38.734 236.496 38.9175L236.496 38.9177L237.746 50.1675C237.746 50.1676 237.746 50.1676 237.746 50.1677C237.757 50.2725 237.747 50.3785 237.714 50.4788C237.682 50.5793 237.629 50.6718 237.559 50.7503L237.931 51.0839L237.559 50.7503C237.488 50.8289 237.402 50.8917 237.306 50.9348C237.21 50.9778 237.106 51 237 51H237H222H222C221.895 51 221.79 50.9778 221.694 50.9348C221.598 50.8917 221.512 50.8289 221.441 50.7503C221.371 50.6718 221.318 50.5793 221.286 50.4788C221.254 50.3784 221.243 50.2723 221.254 50.1675L222.504 38.9177L222.504 38.9175C222.525 38.734 222.612 38.5644 222.75 38.4412C222.887 38.3181 223.065 38.25 223.25 38.25H223.25H224.5ZM232 38.25H232.5V37.75V36.5C232.5 35.7044 232.184 34.9413 231.621 34.3787C231.059 33.8161 230.296 33.5 229.5 33.5C228.704 33.5 227.941 33.8161 227.379 34.3787C226.816 34.9413 226.5 35.7044 226.5 36.5V37.75V38.25H227H232ZM224.513 42.7374L224.816 42.4344L224.513 42.7374C224.841 43.0656 225.286 43.25 225.75 43.25C226.214 43.25 226.659 43.0656 226.987 42.7374C227.316 42.4092 227.5 41.9641 227.5 41.5C227.5 41.0359 227.316 40.5908 226.987 40.2626C226.659 39.9344 226.214 39.75 225.75 39.75C225.286 39.75 224.841 39.9344 224.513 40.2626L224.816 40.5656L224.513 40.2626C224.184 40.5908 224 41.0359 224 41.5C224 41.9641 224.184 42.4092 224.513 42.7374ZM233.25 39.75C232.786 39.75 232.341 39.9344 232.013 40.2626C231.684 40.5908 231.5 41.0359 231.5 41.5C231.5 41.9641 231.684 42.4092 232.013 42.7374C232.341 43.0656 232.786 43.25 233.25 43.25C233.714 43.25 234.159 43.0656 234.487 42.7374C234.816 42.4092 235 41.9641 235 41.5C235 41.0359 234.816 40.5908 234.487 40.2626C234.159 39.9344 233.714 39.75 233.25 39.75Z" fill="white" stroke="white"/>
<path d="M311.5 76.0416C309.146 76.0416 307.229 74.1251 307.229 71.7708C307.229 69.4166 309.146 67.5 311.5 67.5C313.854 67.5 315.771 69.4166 315.771 71.7708C315.771 74.1251 313.854 76.0416 311.5 76.0416ZM318.375 86.4583L317.125 86.4583L304.625 86.4583C303.474 86.4583 302.542 85.5256 302.542 84.375C302.542 82.4947 303.299 81.1636 304.507 80.2884C305.734 79.4005 307.461 78.9583 309.417 78.9583H313.583C315.539 78.9583 317.266 79.4005 318.492 80.2884C319.701 81.1636 320.458 82.4947 320.458 84.375C320.458 85.5256 319.526 86.4583 318.375 86.4583Z" fill="#777777" stroke="#777777" stroke-width="0.833333"/>
<path d="M162.672 88.7516L157.998 84.0781C157.787 83.8672 157.502 83.75 157.202 83.75H156.438C157.731 82.0953 158.5 80.0141 158.5 77.75C158.5 72.3641 154.136 68 148.75 68C143.364 68 139 72.3641 139 77.75C139 83.1359 143.364 87.5 148.75 87.5C151.014 87.5 153.095 86.7313 154.75 85.4375V86.2016C154.75 86.5016 154.867 86.7875 155.078 86.9984L159.752 91.6719C160.192 92.1125 160.905 92.1125 161.341 91.6719L162.667 90.3453C163.108 89.9047 163.108 89.1922 162.672 88.7516ZM148.75 83.75C145.436 83.75 142.75 81.0688 142.75 77.75C142.75 74.4359 145.431 71.75 148.75 71.75C152.064 71.75 154.75 74.4312 154.75 77.75C154.75 81.0641 152.069 83.75 148.75 83.75Z" fill="#777777"/>
<path d="M65 68C58.373 68 53 73.375 53 80C53 86.6289 58.373 92 65 92C71.627 92 77 86.6289 77 80C77 73.375 71.627 68 65 68ZM65 73.3226C66.1224 73.3226 67.0323 74.2325 67.0323 75.3548C67.0323 76.4772 66.1224 77.3871 65 77.3871C63.8776 77.3871 62.9677 76.4772 62.9677 75.3548C62.9677 74.2325 63.8776 73.3226 65 73.3226ZM67.7097 85.6129C67.7097 85.9336 67.4497 86.1935 67.129 86.1935H62.871C62.5503 86.1935 62.2903 85.9336 62.2903 85.6129V84.4516C62.2903 84.131 62.5503 83.871 62.871 83.871H63.4516V80.7742H62.871C62.5503 80.7742 62.2903 80.5142 62.2903 80.1935V79.0323C62.2903 78.7116 62.5503 78.4516 62.871 78.4516H65.9677C66.2884 78.4516 66.5484 78.7116 66.5484 79.0323V83.871H67.129C67.4497 83.871 67.7097 84.131 67.7097 84.4516V85.6129Z" fill="#777777"/>
</g>
<defs>
<filter id="filter0_dddd" x="132" y="-20" width="194" height="194" filterUnits="userSpaceOnUse" color-interpolation-filters="sRGB">
<feFlood flood-opacity="0" result="BackgroundImageFix"/>
<feColorMatrix in="SourceAlpha" type="matrix" values="0 0 0 0 0 0 0 0 0 0 0 0 0 0 0 0 0 0 127 0"/>
<feOffset dy="1.575"/>
<feGaussianBlur stdDeviation="1.87891"/>
<feColorMatrix type="matrix" values="0 0 0 0 0.211765 0 0 0 0 0.572549 0 0 0 0 0.27451 0 0 0 0.0585 0"/>
<feBlend mode="normal" in2="BackgroundImageFix" result="effect1_dropShadow"/>
<feColorMatrix in="SourceAlpha" type="matrix" values="0 0 0 0 0 0 0 0 0 0 0 0 0 0 0 0 0 0 127 0"/>
<feOffset dy="7.2"/>
<feGaussianBlur stdDeviation="5.28125"/>
<feColorMatrix type="matrix" values="0 0 0 0 0.211765 0 0 0 0 0.572549 0 0 0 0 0.27451 0 0 0 0.09 0"/>
<feBlend mode="normal" in2="effect1_dropShadow" result="effect2_dropShadow"/>
<feColorMatrix in="SourceAlpha" type="matrix" values="0 0 0 0 0 0 0 0 0 0 0 0 0 0 0 0 0 0 127 0"/>
<feOffset dy="18.225"/>
<feGaussianBlur stdDeviation="14.168"/>
<feColorMatrix type="matrix" values="0 0 0 0 0.211765 0 0 0 0 0.572549 0 0 0 0 0.27451 0 0 0 0.1215 0"/>
<feBlend mode="normal" in2="effect2_dropShadow" result="effect3_dropShadow"/>
<feColorMatrix in="SourceAlpha" type="matrix" values="0 0 0 0 0 0 0 0 0 0 0 0 0 0 0 0 0 0 127 0"/>
<feOffset dy="36"/>
<feGaussianBlur stdDeviation="32.5"/>
<feColorMatrix type="matrix" values="0 0 0 0 0.211765 0 0 0 0 0.572549 0 0 0 0 0.27451 0 0 0 0.18 0"/>
<feBlend mode="normal" in2="effect3_dropShadow" result="effect4_dropShadow"/>
<feBlend mode="normal" in="SourceGraphic" in2="effect4_dropShadow" result="shape"/>
</filter>
<linearGradient id="paint0_linear" x1="201.8" y1="69.8" x2="263" y2="15.8" gradientUnits="userSpaceOnUse">
<stop stop-color="#26AD71"/>
<stop offset="1" stop-color="#32CB4B"/>
</linearGradient>
<clipPath id="clip0">
<rect width="375" height="131" fill="white"/>
</clipPath>
</defs>
</svg>
