<svg width="375" height="131" viewBox="0 0 375 131" fill="none" xmlns="http://www.w3.org/2000/svg">
<g clip-path="url(#clip0)">
<path fill-rule="evenodd" clip-rule="evenodd" d="M101.226 21.7809C106.411 31.5339 114.954 41 126 41H440C451.046 41 460 49.9543 460 61V111C460 122.046 451.046 131 440 131H-81C-92.0457 131 -101 122.046 -101 111V61C-101 49.9543 -92.0457 41 -81 41H4C15.0457 41 23.5892 31.5339 28.7744 21.7809C35.6633 8.82306 49.3013 0 65 0C80.6987 0 94.3367 8.82306 101.226 21.7809Z" fill="white"/>
<g filter="url(#filter0_dddd)">
<circle cx="65" cy="41" r="32" fill="url(#paint0_linear)"/>
</g>
<path d="M25.1737 95V85.06H26.7417V95H25.1737ZM35.3582 95H33.8182V90.898C33.8182 90.2073 33.7062 89.708 33.4822 89.4C33.2675 89.0827 32.9455 88.924 32.5162 88.924C32.2175 88.924 31.9188 88.9987 31.6202 89.148C31.3308 89.2973 31.0695 89.5027 30.8362 89.764C30.6028 90.0253 30.4348 90.3193 30.3322 90.646V95H28.7922V87.678H30.1922V89.148C30.4722 88.6627 30.8782 88.2753 31.4102 87.986C31.9422 87.6967 32.5302 87.552 33.1742 87.552C33.7528 87.552 34.2008 87.692 34.5182 87.972C34.8355 88.2427 35.0548 88.602 35.1762 89.05C35.2975 89.498 35.3582 89.9927 35.3582 90.534V95ZM37.511 95V89.05H36.531V87.86H37.511V87.566C37.511 86.67 37.721 85.9607 38.141 85.438C38.5703 84.906 39.1397 84.64 39.849 84.64C40.4463 84.64 41.0157 84.7893 41.557 85.088L41.221 86.236C41.081 86.152 40.913 86.082 40.717 86.026C40.5303 85.97 40.3483 85.942 40.171 85.942C39.807 85.942 39.527 86.0773 39.331 86.348C39.1443 86.6187 39.051 87.0107 39.051 87.524V87.86H40.927V89.05H39.051V95H37.511ZM45.2482 95.14C44.4828 95.14 43.8155 94.9673 43.2462 94.622C42.6862 94.2673 42.2522 93.8053 41.9442 93.236C41.6362 92.6573 41.4822 92.0273 41.4822 91.346C41.4822 90.6647 41.6362 90.0393 41.9442 89.47C42.2615 88.8913 42.7002 88.4293 43.2602 88.084C43.8295 87.7293 44.4922 87.552 45.2482 87.552C46.0042 87.552 46.6622 87.7293 47.2222 88.084C47.7915 88.4293 48.2302 88.8913 48.5382 89.47C48.8555 90.0393 49.0142 90.6647 49.0142 91.346C49.0142 92.0273 48.8602 92.6573 48.5522 93.236C48.2442 93.8053 47.8055 94.2673 47.2362 94.622C46.6762 94.9673 46.0135 95.14 45.2482 95.14ZM43.0642 91.36C43.0642 91.8267 43.1622 92.2467 43.3582 92.62C43.5542 92.9933 43.8155 93.2873 44.1422 93.502C44.4688 93.7167 44.8375 93.824 45.2482 93.824C45.6495 93.824 46.0135 93.7167 46.3402 93.502C46.6762 93.278 46.9422 92.9793 47.1382 92.606C47.3342 92.2327 47.4322 91.8127 47.4322 91.346C47.4322 90.8793 47.3342 90.4593 47.1382 90.086C46.9422 89.7127 46.6762 89.4187 46.3402 89.204C46.0135 88.98 45.6495 88.868 45.2482 88.868C44.8468 88.868 44.4782 88.98 44.1422 89.204C43.8155 89.4187 43.5542 89.7173 43.3582 90.1C43.1622 90.4733 43.0642 90.8933 43.0642 91.36ZM54.4961 89.008C53.8987 89.0267 53.3667 89.1667 52.9001 89.428C52.4427 89.68 52.1161 90.044 51.9201 90.52V95H50.3801V87.678H51.8081V89.316C52.0601 88.812 52.3914 88.4107 52.8021 88.112C53.2127 87.804 53.6467 87.636 54.1041 87.608C54.1881 87.608 54.2627 87.608 54.3281 87.608C54.3934 87.608 54.4494 87.6127 54.4961 87.622V89.008ZM66.8164 95H65.2764V90.898C65.2764 90.226 65.1644 89.7313 64.9404 89.414C64.7164 89.0873 64.3897 88.924 63.9604 88.924C63.5311 88.924 63.1297 89.0873 62.7564 89.414C62.3924 89.7313 62.1357 90.1467 61.9864 90.66V95H60.4464V90.898C60.4464 90.2073 60.3344 89.708 60.1104 89.4C59.8864 89.0827 59.5644 88.924 59.1444 88.924C58.715 88.924 58.3137 89.0827 57.9404 89.4C57.5764 89.7173 57.315 90.1327 57.1564 90.646V95H55.6164V87.678H57.0164V89.148C57.2964 88.6347 57.6744 88.2427 58.1504 87.972C58.6264 87.692 59.1677 87.552 59.7744 87.552C60.381 87.552 60.857 87.7107 61.2024 88.028C61.557 88.3453 61.7764 88.742 61.8604 89.218C62.495 88.1073 63.4144 87.552 64.6184 87.552C65.197 87.552 65.6451 87.692 65.9624 87.972C66.2797 88.2427 66.4991 88.6067 66.6204 89.064C66.7511 89.512 66.8164 90.002 66.8164 90.534V95ZM68.059 92.858C68.059 92.3913 68.1897 91.9853 68.451 91.64C68.7123 91.2853 69.0763 91.0147 69.543 90.828C70.019 90.632 70.565 90.534 71.181 90.534C71.5077 90.534 71.839 90.562 72.175 90.618C72.5203 90.6647 72.8237 90.7347 73.085 90.828V90.366C73.085 89.8527 72.931 89.4513 72.623 89.162C72.315 88.8727 71.8717 88.728 71.293 88.728C70.8917 88.728 70.5043 88.798 70.131 88.938C69.7577 89.078 69.3703 89.2833 68.969 89.554L68.451 88.518C68.9363 88.2007 69.4217 87.9627 69.907 87.804C70.4017 87.636 70.9197 87.552 71.461 87.552C72.441 87.552 73.211 87.8133 73.771 88.336C74.3403 88.8493 74.625 89.582 74.625 90.534V93.264C74.625 93.4413 74.653 93.5673 74.709 93.642C74.7743 93.7167 74.8817 93.7587 75.031 93.768V95C74.891 95.028 74.765 95.0467 74.653 95.056C74.541 95.0653 74.4477 95.07 74.373 95.07C74.037 95.07 73.785 94.9907 73.617 94.832C73.4583 94.664 73.365 94.4773 73.337 94.272L73.295 93.852C72.9777 94.2627 72.5717 94.58 72.077 94.804C71.5823 95.028 71.083 95.14 70.579 95.14C70.0937 95.14 69.6597 95.042 69.277 94.846C68.8943 94.6407 68.5957 94.3653 68.381 94.02C68.1663 93.6747 68.059 93.2873 68.059 92.858ZM72.721 93.306C72.9637 93.0633 73.085 92.8347 73.085 92.62V91.78C72.5343 91.5747 71.9743 91.472 71.405 91.472C70.845 91.472 70.3877 91.5887 70.033 91.822C69.6877 92.046 69.515 92.3493 69.515 92.732C69.515 93.0493 69.641 93.3433 69.893 93.614C70.1543 93.8753 70.5277 94.006 71.013 94.006C71.3397 94.006 71.657 93.9407 71.965 93.81C72.273 93.6793 72.525 93.5113 72.721 93.306ZM79.8113 95.14C79.0553 95.14 78.3927 94.9673 77.8233 94.622C77.254 94.2673 76.8107 93.8007 76.4933 93.222C76.176 92.6433 76.0173 92.0133 76.0173 91.332C76.0173 90.6507 76.1713 90.0253 76.4793 89.456C76.7967 88.8773 77.2353 88.4153 77.7953 88.07C78.3647 87.7247 79.0367 87.552 79.8113 87.552C80.5673 87.552 81.216 87.72 81.7573 88.056C82.308 88.3827 82.7187 88.8213 82.9893 89.372L81.4913 89.848C81.3233 89.54 81.0853 89.302 80.7773 89.134C80.4787 88.9567 80.1473 88.868 79.7833 88.868C79.3727 88.868 78.9993 88.9753 78.6633 89.19C78.3367 89.3953 78.0753 89.6847 77.8793 90.058C77.6927 90.4313 77.5993 90.856 77.5993 91.332C77.5993 91.808 77.6973 92.2327 77.8933 92.606C78.0987 92.9793 78.3647 93.278 78.6913 93.502C79.0273 93.7167 79.396 93.824 79.7973 93.824C80.1707 93.824 80.5253 93.726 80.8613 93.53C81.1973 93.334 81.4213 93.096 81.5333 92.816L83.0453 93.264C82.8027 93.8147 82.3967 94.2673 81.8273 94.622C81.258 94.9673 80.586 95.14 79.8113 95.14ZM79.6433 97.702C79.3913 97.702 79.1207 97.6693 78.8313 97.604C78.542 97.5387 78.262 97.436 77.9913 97.296L78.3833 96.47C78.5513 96.554 78.71 96.624 78.8593 96.68C79.018 96.736 79.1907 96.764 79.3773 96.764C79.6387 96.764 79.844 96.708 79.9933 96.596C80.1427 96.484 80.2173 96.3207 80.2173 96.106C80.2173 95.8913 80.1427 95.6953 79.9933 95.518C79.844 95.3407 79.6293 95.168 79.3493 95L79.8813 94.636C80.2547 94.8787 80.5627 95.1307 80.8053 95.392C81.048 95.6627 81.1693 95.994 81.1693 96.386C81.1693 96.778 81.034 97.0953 80.7633 97.338C80.502 97.5807 80.1287 97.702 79.6433 97.702ZM87.5353 95.14C86.77 95.14 86.1026 94.9673 85.5333 94.622C84.9733 94.2673 84.5393 93.8053 84.2313 93.236C83.9233 92.6573 83.7693 92.0273 83.7693 91.346C83.7693 90.6647 83.9233 90.0393 84.2313 89.47C84.5486 88.8913 84.9873 88.4293 85.5473 88.084C86.1166 87.7293 86.7793 87.552 87.5353 87.552C88.2913 87.552 88.9493 87.7293 89.5093 88.084C90.0786 88.4293 90.5173 88.8913 90.8253 89.47C91.1426 90.0393 91.3013 90.6647 91.3013 91.346C91.3013 92.0273 91.1473 92.6573 90.8393 93.236C90.5313 93.8053 90.0926 94.2673 89.5233 94.622C88.9633 94.9673 88.3006 95.14 87.5353 95.14ZM85.3513 91.36C85.3513 91.8267 85.4493 92.2467 85.6453 92.62C85.8413 92.9933 86.1026 93.2873 86.4293 93.502C86.756 93.7167 87.1246 93.824 87.5353 93.824C87.9366 93.824 88.3006 93.7167 88.6273 93.502C88.9633 93.278 89.2293 92.9793 89.4253 92.606C89.6213 92.2327 89.7193 91.8127 89.7193 91.346C89.7193 90.8793 89.6213 90.4593 89.4253 90.086C89.2293 89.7127 88.9633 89.4187 88.6273 89.204C88.3006 88.98 87.9366 88.868 87.5353 88.868C87.134 88.868 86.7653 88.98 86.4293 89.204C86.1026 89.4187 85.8413 89.7173 85.6453 90.1C85.4493 90.4733 85.3513 90.8933 85.3513 91.36ZM88.4313 86.39C88.1513 86.39 87.9133 86.3387 87.7173 86.236C87.5213 86.1333 87.3346 86.0353 87.1573 85.942C86.9893 85.8393 86.8073 85.788 86.6113 85.788C86.3966 85.788 86.2426 85.8393 86.1493 85.942C86.056 86.0447 85.9953 86.152 85.9673 86.264C85.9393 86.376 85.9253 86.4413 85.9253 86.46H85.0573C85.0573 86.3853 85.0806 86.264 85.1273 86.096C85.174 85.9187 85.2533 85.7367 85.3653 85.55C85.4773 85.354 85.6313 85.1907 85.8273 85.06C86.0233 84.92 86.266 84.85 86.5553 84.85C86.8353 84.85 87.0686 84.9013 87.2553 85.004C87.442 85.1067 87.6193 85.2093 87.7873 85.312C87.9553 85.4147 88.156 85.466 88.3893 85.466C88.6133 85.466 88.7813 85.4147 88.8933 85.312C89.0053 85.2 89.0753 85.088 89.1033 84.976C89.1313 84.864 89.1453 84.7987 89.1453 84.78H90.0273C90.0273 84.836 89.9993 84.9527 89.9433 85.13C89.8966 85.298 89.8126 85.48 89.6913 85.676C89.57 85.872 89.4066 86.04 89.2013 86.18C88.996 86.32 88.7393 86.39 88.4313 86.39ZM95.9852 95.14C95.2292 95.14 94.5665 94.9673 93.9972 94.622C93.4278 94.2767 92.9845 93.8193 92.6672 93.25C92.3498 92.6713 92.1912 92.0413 92.1912 91.36C92.1912 90.6693 92.3498 90.0347 92.6672 89.456C92.9845 88.8773 93.4278 88.4153 93.9972 88.07C94.5665 87.7247 95.2338 87.552 95.9992 87.552C96.7645 87.552 97.4272 87.7293 97.9872 88.084C98.5472 88.4293 98.9765 88.8867 99.2752 89.456C99.5832 90.0253 99.7372 90.6367 99.7372 91.29C99.7372 91.5233 99.7232 91.71 99.6952 91.85H93.8292C93.8572 92.2793 93.9738 92.6573 94.1792 92.984C94.3938 93.3013 94.6598 93.5533 94.9772 93.74C95.3038 93.9173 95.6585 94.006 96.0412 94.006C96.4518 94.006 96.8392 93.9033 97.2032 93.698C97.5672 93.4927 97.8192 93.222 97.9592 92.886L99.2752 93.264C99.0232 93.8147 98.6032 94.2673 98.0152 94.622C97.4365 94.9673 96.7598 95.14 95.9852 95.14ZM93.7872 90.828H98.2112C98.1738 90.408 98.0525 90.0393 97.8472 89.722C97.6418 89.3953 97.3758 89.1433 97.0492 88.966C96.7318 88.7793 96.3772 88.686 95.9852 88.686C95.6025 88.686 95.2478 88.7793 94.9212 88.966C94.6038 89.1433 94.3425 89.3953 94.1372 89.722C93.9318 90.0393 93.8152 90.408 93.7872 90.828ZM103.597 95.14C102.981 95.14 102.398 95.0373 101.847 94.832C101.297 94.6267 100.825 94.328 100.433 93.936L101.007 92.9C101.427 93.2733 101.847 93.544 102.267 93.712C102.687 93.88 103.112 93.964 103.541 93.964C103.971 93.964 104.321 93.8847 104.591 93.726C104.862 93.558 104.997 93.3153 104.997 92.998C104.997 92.774 104.927 92.6013 104.787 92.48C104.647 92.3587 104.442 92.2607 104.171 92.186C103.91 92.1113 103.593 92.018 103.219 91.906C102.697 91.7473 102.258 91.584 101.903 91.416C101.549 91.2387 101.283 91.024 101.105 90.772C100.928 90.52 100.839 90.198 100.839 89.806C100.839 89.0967 101.105 88.546 101.637 88.154C102.169 87.7527 102.865 87.552 103.723 87.552C104.255 87.552 104.745 87.636 105.193 87.804C105.651 87.9627 106.052 88.2147 106.397 88.56L105.739 89.582C105.105 89.0033 104.405 88.714 103.639 88.714C103.303 88.714 102.991 88.7793 102.701 88.91C102.421 89.0407 102.281 89.2833 102.281 89.638C102.281 89.9367 102.407 90.1513 102.659 90.282C102.911 90.4127 103.285 90.5527 103.779 90.702C104.339 90.87 104.82 91.038 105.221 91.206C105.632 91.3647 105.945 91.5747 106.159 91.836C106.383 92.088 106.495 92.438 106.495 92.886C106.495 93.5953 106.229 94.1507 105.697 94.552C105.165 94.944 104.465 95.14 103.597 95.14Z" fill="#777777"/>
<path d="M224.5 74.25H225V73.75V72.5C225 71.3065 225.474 70.1619 226.318 69.318C227.162 68.4741 228.307 68 229.5 68C230.693 68 231.838 68.4741 232.682 69.318C233.526 70.1619 234 71.3065 234 72.5V73.75V74.25H234.5H235.75H235.75C235.935 74.25 236.113 74.3181 236.25 74.4412C236.388 74.5644 236.475 74.734 236.496 74.9175L236.496 74.9177L237.746 86.1675C237.746 86.1676 237.746 86.1676 237.746 86.1677C237.757 86.2725 237.746 86.3785 237.714 86.4788C237.682 86.5793 237.629 86.6718 237.559 86.7503L237.931 87.0839L237.559 86.7503C237.488 86.8289 237.402 86.8917 237.306 86.9348C237.21 86.9778 237.105 87 237 87H237H222H222C221.895 87 221.79 86.9778 221.694 86.9348C221.598 86.8917 221.512 86.8289 221.441 86.7503C221.371 86.6718 221.318 86.5793 221.286 86.4788C221.254 86.3784 221.243 86.2723 221.254 86.1675L222.504 74.9177L222.504 74.9175C222.525 74.734 222.612 74.5644 222.75 74.4412C222.887 74.3181 223.065 74.25 223.25 74.25H223.25H224.5ZM232 74.25H232.5V73.75V72.5C232.5 71.7044 232.184 70.9413 231.621 70.3787C231.059 69.8161 230.296 69.5 229.5 69.5C228.704 69.5 227.941 69.8161 227.379 70.3787C226.816 70.9413 226.5 71.7044 226.5 72.5V73.75V74.25H227H232ZM224.513 78.7374L224.816 78.4344L224.513 78.7374C224.841 79.0656 225.286 79.25 225.75 79.25C226.214 79.25 226.659 79.0656 226.987 78.7374C227.316 78.4092 227.5 77.9641 227.5 77.5C227.5 77.0359 227.316 76.5908 226.987 76.2626C226.659 75.9344 226.214 75.75 225.75 75.75C225.286 75.75 224.841 75.9344 224.513 76.2626L224.816 76.5656L224.513 76.2626C224.184 76.5908 224 77.0359 224 77.5C224 77.9641 224.184 78.4092 224.513 78.7374ZM233.25 75.75C232.786 75.75 232.341 75.9344 232.013 76.2626C231.684 76.5908 231.5 77.0359 231.5 77.5C231.5 77.9641 231.684 78.4092 232.013 78.7374C232.341 79.0656 232.786 79.25 233.25 79.25C233.714 79.25 234.159 79.0656 234.487 78.7374C234.816 78.4092 235 77.9641 235 77.5C235 77.0359 234.816 76.5908 234.487 76.2626C234.159 75.9344 233.714 75.75 233.25 75.75Z" fill="#777777" stroke="#777777"/>
<rect width="25" height="25" transform="translate(299 65)" fill="white"/>
<path d="M311.5 76.0416C309.146 76.0416 307.229 74.1251 307.229 71.7708C307.229 69.4166 309.146 67.5 311.5 67.5C313.854 67.5 315.771 69.4166 315.771 71.7708C315.771 74.1251 313.854 76.0416 311.5 76.0416ZM318.375 86.4583L317.125 86.4583L304.625 86.4583C303.474 86.4583 302.542 85.5256 302.542 84.375C302.542 82.4947 303.299 81.1636 304.507 80.2884C305.734 79.4005 307.461 78.9583 309.417 78.9583H313.583C315.539 78.9583 317.266 79.4005 318.492 80.2884C319.701 81.1636 320.458 82.4947 320.458 84.375C320.458 85.5256 319.526 86.4583 318.375 86.4583Z" fill="#777777" stroke="#777777" stroke-width="0.833333"/>
<path d="M65.5 23C55.8357 23 48 30.8385 48 40.5C48 50.1671 55.8357 58 65.5 58C75.1643 58 83 50.1671 83 40.5C83 30.8385 75.1643 23 65.5 23ZM65.5 30.7621C67.1368 30.7621 68.4637 32.089 68.4637 33.7258C68.4637 35.3626 67.1368 36.6895 65.5 36.6895C63.8632 36.6895 62.5363 35.3626 62.5363 33.7258C62.5363 32.089 63.8632 30.7621 65.5 30.7621ZM69.4516 48.6855C69.4516 49.1531 69.0725 49.5323 68.6048 49.5323H62.3952C61.9275 49.5323 61.5484 49.1531 61.5484 48.6855V46.9919C61.5484 46.5243 61.9275 46.1452 62.3952 46.1452H63.2419V41.629H62.3952C61.9275 41.629 61.5484 41.2499 61.5484 40.7823V39.0887C61.5484 38.6211 61.9275 38.2419 62.3952 38.2419H66.9113C67.3789 38.2419 67.7581 38.6211 67.7581 39.0887V46.1452H68.6048C69.0725 46.1452 69.4516 46.5243 69.4516 46.9919V48.6855Z" fill="white"/>
<path d="M162.672 88.7516L157.998 84.0781C157.787 83.8672 157.502 83.75 157.202 83.75H156.438C157.731 82.0953 158.5 80.0141 158.5 77.75C158.5 72.3641 154.136 68 148.75 68C143.364 68 139 72.3641 139 77.75C139 83.1359 143.364 87.5 148.75 87.5C151.014 87.5 153.095 86.7313 154.75 85.4375V86.2016C154.75 86.5016 154.867 86.7875 155.078 86.9984L159.752 91.6719C160.192 92.1125 160.905 92.1125 161.341 91.6719L162.667 90.3453C163.108 89.9047 163.108 89.1922 162.672 88.7516ZM148.75 83.75C145.436 83.75 142.75 81.0688 142.75 77.75C142.75 74.4359 145.431 71.75 148.75 71.75C152.064 71.75 154.75 74.4312 154.75 77.75C154.75 81.0641 152.069 83.75 148.75 83.75Z" fill="#777777"/>
</g>
<defs>
<filter id="filter0_dddd" x="-32" y="-20" width="194" height="194" filterUnits="userSpaceOnUse" color-interpolation-filters="sRGB">
<feFlood flood-opacity="0" result="BackgroundImageFix"/>
<feColorMatrix in="SourceAlpha" type="matrix" values="0 0 0 0 0 0 0 0 0 0 0 0 0 0 0 0 0 0 127 0"/>
<feOffset dy="1.575"/>
<feGaussianBlur stdDeviation="1.87891"/>
<feColorMatrix type="matrix" values="0 0 0 0 0.211765 0 0 0 0 0.572549 0 0 0 0 0.27451 0 0 0 0.0585 0"/>
<feBlend mode="normal" in2="BackgroundImageFix" result="effect1_dropShadow"/>
<feColorMatrix in="SourceAlpha" type="matrix" values="0 0 0 0 0 0 0 0 0 0 0 0 0 0 0 0 0 0 127 0"/>
<feOffset dy="7.2"/>
<feGaussianBlur stdDeviation="5.28125"/>
<feColorMatrix type="matrix" values="0 0 0 0 0.211765 0 0 0 0 0.572549 0 0 0 0 0.27451 0 0 0 0.09 0"/>
<feBlend mode="normal" in2="effect1_dropShadow" result="effect2_dropShadow"/>
<feColorMatrix in="SourceAlpha" type="matrix" values="0 0 0 0 0 0 0 0 0 0 0 0 0 0 0 0 0 0 127 0"/>
<feOffset dy="18.225"/>
<feGaussianBlur stdDeviation="14.168"/>
<feColorMatrix type="matrix" values="0 0 0 0 0.211765 0 0 0 0 0.572549 0 0 0 0 0.27451 0 0 0 0.1215 0"/>
<feBlend mode="normal" in2="effect2_dropShadow" result="effect3_dropShadow"/>
<feColorMatrix in="SourceAlpha" type="matrix" values="0 0 0 0 0 0 0 0 0 0 0 0 0 0 0 0 0 0 127 0"/>
<feOffset dy="36"/>
<feGaussianBlur stdDeviation="32.5"/>
<feColorMatrix type="matrix" values="0 0 0 0 0.211765 0 0 0 0 0.572549 0 0 0 0 0.27451 0 0 0 0.18 0"/>
<feBlend mode="normal" in2="effect3_dropShadow" result="effect4_dropShadow"/>
<feBlend mode="normal" in="SourceGraphic" in2="effect4_dropShadow" result="shape"/>
</filter>
<linearGradient id="paint0_linear" x1="37.8" y1="69.8" x2="99" y2="15.8" gradientUnits="userSpaceOnUse">
<stop stop-color="#26AD71"/>
<stop offset="1" stop-color="#32CB4B"/>
</linearGradient>
<clipPath id="clip0">
<rect width="375" height="131" fill="white"/>
</clipPath>
</defs>
</svg>
