<svg width="375" height="131" viewBox="0 0 375 131" fill="none" xmlns="http://www.w3.org/2000/svg">
<g clip-path="url(#clip0)">
<path fill-rule="evenodd" clip-rule="evenodd" d="M183.226 21.7809C188.411 31.5339 196.954 41 208 41H440C451.046 41 460 49.9543 460 61V111C460 122.046 451.046 131 440 131H-81C-92.0457 131 -101 122.046 -101 111V61C-101 49.9543 -92.0457 41 -81 41H86C97.0457 41 105.589 31.5339 110.774 21.7809C117.663 8.82306 131.301 0 147 0C162.699 0 176.337 8.82306 183.226 21.7809Z" fill="white"/>
<g filter="url(#filter0_dddd)">
<circle cx="147" cy="41" r="32" fill="url(#paint0_linear)"/>
</g>
<path d="M133.032 92.438C133.032 92.97 132.892 93.4273 132.612 93.81C132.332 94.1927 131.958 94.4867 131.492 94.692C131.034 94.8973 130.526 95 129.966 95H125.22V85.06H130.344C130.81 85.06 131.212 85.186 131.548 85.438C131.884 85.6807 132.145 85.998 132.332 86.39C132.518 86.782 132.612 87.1833 132.612 87.594C132.612 88.0793 132.486 88.5367 132.234 88.966C131.991 89.386 131.641 89.6987 131.184 89.904C131.744 90.072 132.192 90.38 132.528 90.828C132.864 91.2667 133.032 91.8033 133.032 92.438ZM126.788 86.418V89.344H129.672C130.064 89.344 130.39 89.2087 130.652 88.938C130.913 88.658 131.044 88.308 131.044 87.888C131.044 87.4587 130.922 87.1087 130.68 86.838C130.437 86.558 130.129 86.418 129.756 86.418H126.788ZM131.422 92.144C131.422 91.7333 131.291 91.374 131.03 91.066C130.778 90.758 130.456 90.604 130.064 90.604H126.788V93.642H129.966C130.376 93.642 130.722 93.4973 131.002 93.208C131.282 92.9093 131.422 92.5547 131.422 92.144ZM134.387 92.158V87.678H135.927V91.85C135.927 93.166 136.394 93.824 137.327 93.824C137.766 93.824 138.181 93.6887 138.573 93.418C138.965 93.138 139.269 92.746 139.483 92.242V87.678H141.023V93.264C141.023 93.4413 141.056 93.5673 141.121 93.642C141.187 93.7167 141.294 93.7587 141.443 93.768V95C141.285 95.028 141.154 95.0467 141.051 95.056C140.949 95.0653 140.851 95.07 140.757 95.07C140.477 95.07 140.244 94.9953 140.057 94.846C139.871 94.6967 139.763 94.496 139.735 94.244L139.707 93.516C139.381 94.048 138.956 94.454 138.433 94.734C137.911 95.0047 137.337 95.14 136.711 95.14C135.946 95.14 135.367 94.888 134.975 94.384C134.583 93.88 134.387 93.138 134.387 92.158ZM145.592 95.14C144.976 95.14 144.393 95.0373 143.842 94.832C143.292 94.6267 142.82 94.328 142.428 93.936L143.002 92.9C143.422 93.2733 143.842 93.544 144.262 93.712C144.682 93.88 145.107 93.964 145.536 93.964C145.966 93.964 146.316 93.8847 146.586 93.726C146.857 93.558 146.992 93.3153 146.992 92.998C146.992 92.774 146.922 92.6013 146.782 92.48C146.642 92.3587 146.437 92.2607 146.166 92.186C145.905 92.1113 145.588 92.018 145.214 91.906C144.692 91.7473 144.253 91.584 143.898 91.416C143.544 91.2387 143.278 91.024 143.1 90.772C142.923 90.52 142.834 90.198 142.834 89.806C142.834 89.0967 143.1 88.546 143.632 88.154C144.164 87.7527 144.86 87.552 145.718 87.552C146.25 87.552 146.74 87.636 147.188 87.804C147.646 87.9627 148.047 88.2147 148.392 88.56L147.734 89.582C147.1 89.0033 146.4 88.714 145.634 88.714C145.298 88.714 144.986 88.7793 144.696 88.91C144.416 89.0407 144.276 89.2833 144.276 89.638C144.276 89.9367 144.402 90.1513 144.654 90.282C144.906 90.4127 145.28 90.5527 145.774 90.702C146.334 90.87 146.815 91.038 147.216 91.206C147.627 91.3647 147.94 91.5747 148.154 91.836C148.378 92.088 148.49 92.438 148.49 92.886C148.49 93.5953 148.224 94.1507 147.692 94.552C147.16 94.944 146.46 95.14 145.592 95.14ZM153.183 95.14C152.427 95.14 151.765 94.9673 151.195 94.622C150.626 94.2673 150.183 93.8007 149.865 93.222C149.548 92.6433 149.389 92.0133 149.389 91.332C149.389 90.6507 149.543 90.0253 149.851 89.456C150.169 88.8773 150.607 88.4153 151.167 88.07C151.737 87.7247 152.409 87.552 153.183 87.552C153.939 87.552 154.588 87.72 155.129 88.056C155.68 88.3827 156.091 88.8213 156.361 89.372L154.863 89.848C154.695 89.54 154.457 89.302 154.149 89.134C153.851 88.9567 153.519 88.868 153.155 88.868C152.745 88.868 152.371 88.9753 152.035 89.19C151.709 89.3953 151.447 89.6847 151.251 90.058C151.065 90.4313 150.971 90.856 150.971 91.332C150.971 91.808 151.069 92.2327 151.265 92.606C151.471 92.9793 151.737 93.278 152.063 93.502C152.399 93.7167 152.768 93.824 153.169 93.824C153.543 93.824 153.897 93.726 154.233 93.53C154.569 93.334 154.793 93.096 154.905 92.816L156.417 93.264C156.175 93.8147 155.769 94.2673 155.199 94.622C154.63 94.9673 153.958 95.14 153.183 95.14ZM157.154 92.858C157.154 92.3913 157.284 91.9853 157.546 91.64C157.807 91.2853 158.171 91.0147 158.638 90.828C159.114 90.632 159.66 90.534 160.276 90.534C160.602 90.534 160.934 90.562 161.27 90.618C161.615 90.6647 161.918 90.7347 162.18 90.828V90.366C162.18 89.8527 162.026 89.4513 161.718 89.162C161.41 88.8727 160.966 88.728 160.388 88.728C159.986 88.728 159.599 88.798 159.226 88.938C158.852 89.078 158.465 89.2833 158.064 89.554L157.546 88.518C158.031 88.2007 158.516 87.9627 159.002 87.804C159.496 87.636 160.014 87.552 160.556 87.552C161.536 87.552 162.306 87.8133 162.866 88.336C163.435 88.8493 163.72 89.582 163.72 90.534V93.264C163.72 93.4413 163.748 93.5673 163.804 93.642C163.869 93.7167 163.976 93.7587 164.126 93.768V95C163.986 95.028 163.86 95.0467 163.748 95.056C163.636 95.0653 163.542 95.07 163.468 95.07C163.132 95.07 162.88 94.9907 162.712 94.832C162.553 94.664 162.46 94.4773 162.432 94.272L162.39 93.852C162.072 94.2627 161.666 94.58 161.172 94.804C160.677 95.028 160.178 95.14 159.674 95.14C159.188 95.14 158.754 95.042 158.372 94.846C157.989 94.6407 157.69 94.3653 157.476 94.02C157.261 93.6747 157.154 93.2873 157.154 92.858ZM161.816 93.306C162.058 93.0633 162.18 92.8347 162.18 92.62V91.78C161.629 91.5747 161.069 91.472 160.5 91.472C159.94 91.472 159.482 91.5887 159.128 91.822C158.782 92.046 158.61 92.3493 158.61 92.732C158.61 93.0493 158.736 93.3433 158.988 93.614C159.249 93.8753 159.622 94.006 160.108 94.006C160.434 94.006 160.752 93.9407 161.06 93.81C161.368 93.6793 161.62 93.5113 161.816 93.306ZM169.704 89.008C169.107 89.0267 168.575 89.1667 168.108 89.428C167.651 89.68 167.324 90.044 167.128 90.52V95H165.588V87.678H167.016V89.316C167.268 88.812 167.599 88.4107 168.01 88.112C168.421 87.804 168.855 87.636 169.312 87.608C169.396 87.608 169.471 87.608 169.536 87.608C169.601 87.608 169.657 87.6127 169.704 87.622V89.008Z" fill="#777777"/>
<g clip-path="url(#clip1)">
<path d="M159.672 50.7516L154.998 46.0781C154.787 45.8672 154.502 45.75 154.202 45.75H153.438C154.731 44.0953 155.5 42.0141 155.5 39.75C155.5 34.3641 151.136 30 145.75 30C140.364 30 136 34.3641 136 39.75C136 45.1359 140.364 49.5 145.75 49.5C148.014 49.5 150.095 48.7313 151.75 47.4375V48.2016C151.75 48.5016 151.867 48.7875 152.078 48.9984L156.752 53.6719C157.192 54.1125 157.905 54.1125 158.341 53.6719L159.667 52.3453C160.108 51.9047 160.108 51.1922 159.672 50.7516ZM145.75 45.75C142.436 45.75 139.75 43.0688 139.75 39.75C139.75 36.4359 142.431 33.75 145.75 33.75C149.064 33.75 151.75 36.4312 151.75 39.75C151.75 43.0641 149.069 45.75 145.75 45.75Z" fill="white"/>
</g>
<path d="M224.5 74.25H225V73.75V72.5C225 71.3065 225.474 70.1619 226.318 69.318C227.162 68.4741 228.307 68 229.5 68C230.693 68 231.838 68.4741 232.682 69.318C233.526 70.1619 234 71.3065 234 72.5V73.75V74.25H234.5H235.75H235.75C235.935 74.25 236.113 74.3181 236.25 74.4412C236.388 74.5644 236.475 74.734 236.496 74.9175L236.496 74.9177L237.746 86.1675C237.746 86.1676 237.746 86.1676 237.746 86.1677C237.757 86.2725 237.746 86.3785 237.714 86.4788C237.682 86.5793 237.629 86.6718 237.559 86.7503L237.931 87.0839L237.559 86.7503C237.488 86.8289 237.402 86.8917 237.306 86.9348C237.21 86.9778 237.105 87 237 87H237H222H222C221.895 87 221.79 86.9778 221.694 86.9348C221.598 86.8917 221.512 86.8289 221.441 86.7503C221.371 86.6718 221.318 86.5793 221.286 86.4788C221.253 86.3784 221.243 86.2723 221.254 86.1675L222.504 74.9177L222.504 74.9175C222.525 74.734 222.612 74.5644 222.75 74.4412C222.887 74.3181 223.065 74.25 223.25 74.25H223.25H224.5ZM232 74.25H232.5V73.75V72.5C232.5 71.7044 232.184 70.9413 231.621 70.3787C231.059 69.8161 230.296 69.5 229.5 69.5C228.704 69.5 227.941 69.8161 227.379 70.3787C226.816 70.9413 226.5 71.7044 226.5 72.5V73.75V74.25H227H232ZM224.513 78.7374L224.816 78.4344L224.513 78.7374C224.841 79.0656 225.286 79.25 225.75 79.25C226.214 79.25 226.659 79.0656 226.987 78.7374C227.316 78.4092 227.5 77.9641 227.5 77.5C227.5 77.0359 227.316 76.5908 226.987 76.2626C226.659 75.9344 226.214 75.75 225.75 75.75C225.286 75.75 224.841 75.9344 224.513 76.2626L224.816 76.5656L224.513 76.2626C224.184 76.5908 224 77.0359 224 77.5C224 77.9641 224.184 78.4092 224.513 78.7374ZM233.25 75.75C232.786 75.75 232.341 75.9344 232.013 76.2626C231.684 76.5908 231.5 77.0359 231.5 77.5C231.5 77.9641 231.684 78.4092 232.013 78.7374C232.341 79.0656 232.786 79.25 233.25 79.25C233.714 79.25 234.159 79.0656 234.487 78.7374C234.816 78.4092 235 77.9641 235 77.5C235 77.0359 234.816 76.5908 234.487 76.2626C234.159 75.9344 233.714 75.75 233.25 75.75Z" fill="#777777" stroke="#777777"/>
<path d="M311.5 76.0416C309.146 76.0416 307.229 74.1251 307.229 71.7708C307.229 69.4166 309.146 67.5 311.5 67.5C313.854 67.5 315.771 69.4166 315.771 71.7708C315.771 74.1251 313.854 76.0416 311.5 76.0416ZM318.375 86.4583L317.125 86.4583L304.625 86.4583C303.474 86.4583 302.542 85.5256 302.542 84.375C302.542 82.4947 303.299 81.1636 304.507 80.2884C305.734 79.4005 307.461 78.9583 309.417 78.9583H313.583C315.539 78.9583 317.266 79.4005 318.492 80.2884C319.701 81.1636 320.458 82.4947 320.458 84.375C320.458 85.5256 319.526 86.4583 318.375 86.4583Z" fill="#777777" stroke="#777777" stroke-width="0.833333"/>
<path d="M65 68C58.373 68 53 73.375 53 80C53 86.6289 58.373 92 65 92C71.627 92 77 86.6289 77 80C77 73.375 71.627 68 65 68ZM65 73.3226C66.1224 73.3226 67.0323 74.2325 67.0323 75.3548C67.0323 76.4772 66.1224 77.3871 65 77.3871C63.8776 77.3871 62.9677 76.4772 62.9677 75.3548C62.9677 74.2325 63.8776 73.3226 65 73.3226ZM67.7097 85.6129C67.7097 85.9336 67.4497 86.1935 67.129 86.1935H62.871C62.5503 86.1935 62.2903 85.9336 62.2903 85.6129V84.4516C62.2903 84.131 62.5503 83.871 62.871 83.871H63.4516V80.7742H62.871C62.5503 80.7742 62.2903 80.5142 62.2903 80.1935V79.0323C62.2903 78.7116 62.5503 78.4516 62.871 78.4516H65.9677C66.2884 78.4516 66.5484 78.7116 66.5484 79.0323V83.871H67.129C67.4497 83.871 67.7097 84.131 67.7097 84.4516V85.6129Z" fill="#777777"/>
</g>
<defs>
<filter id="filter0_dddd" x="50" y="-20" width="194" height="194" filterUnits="userSpaceOnUse" color-interpolation-filters="sRGB">
<feFlood flood-opacity="0" result="BackgroundImageFix"/>
<feColorMatrix in="SourceAlpha" type="matrix" values="0 0 0 0 0 0 0 0 0 0 0 0 0 0 0 0 0 0 127 0"/>
<feOffset dy="1.575"/>
<feGaussianBlur stdDeviation="1.87891"/>
<feColorMatrix type="matrix" values="0 0 0 0 0.211765 0 0 0 0 0.572549 0 0 0 0 0.27451 0 0 0 0.0585 0"/>
<feBlend mode="normal" in2="BackgroundImageFix" result="effect1_dropShadow"/>
<feColorMatrix in="SourceAlpha" type="matrix" values="0 0 0 0 0 0 0 0 0 0 0 0 0 0 0 0 0 0 127 0"/>
<feOffset dy="7.2"/>
<feGaussianBlur stdDeviation="5.28125"/>
<feColorMatrix type="matrix" values="0 0 0 0 0.211765 0 0 0 0 0.572549 0 0 0 0 0.27451 0 0 0 0.09 0"/>
<feBlend mode="normal" in2="effect1_dropShadow" result="effect2_dropShadow"/>
<feColorMatrix in="SourceAlpha" type="matrix" values="0 0 0 0 0 0 0 0 0 0 0 0 0 0 0 0 0 0 127 0"/>
<feOffset dy="18.225"/>
<feGaussianBlur stdDeviation="14.168"/>
<feColorMatrix type="matrix" values="0 0 0 0 0.211765 0 0 0 0 0.572549 0 0 0 0 0.27451 0 0 0 0.1215 0"/>
<feBlend mode="normal" in2="effect2_dropShadow" result="effect3_dropShadow"/>
<feColorMatrix in="SourceAlpha" type="matrix" values="0 0 0 0 0 0 0 0 0 0 0 0 0 0 0 0 0 0 127 0"/>
<feOffset dy="36"/>
<feGaussianBlur stdDeviation="32.5"/>
<feColorMatrix type="matrix" values="0 0 0 0 0.211765 0 0 0 0 0.572549 0 0 0 0 0.27451 0 0 0 0.18 0"/>
<feBlend mode="normal" in2="effect3_dropShadow" result="effect4_dropShadow"/>
<feBlend mode="normal" in="SourceGraphic" in2="effect4_dropShadow" result="shape"/>
</filter>
<linearGradient id="paint0_linear" x1="119.8" y1="69.8" x2="181" y2="15.8" gradientUnits="userSpaceOnUse">
<stop stop-color="#26AD71"/>
<stop offset="1" stop-color="#32CB4B"/>
</linearGradient>
<clipPath id="clip0">
<rect width="375" height="131" fill="white"/>
</clipPath>
<clipPath id="clip1">
<rect width="25" height="25" fill="white" transform="translate(135 29)"/>
</clipPath>
</defs>
</svg>
