<svg width="375" height="131" viewBox="0 0 375 131" fill="none" xmlns="http://www.w3.org/2000/svg">
<g clip-path="url(#clip0)">
<path fill-rule="evenodd" clip-rule="evenodd" d="M183.226 21.7809C188.411 31.5339 196.954 41 208 41H440C451.046 41 460 49.9543 460 61V111C460 122.046 451.046 131 440 131H-81C-92.0457 131 -101 122.046 -101 111V61C-101 49.9543 -92.0457 41 -81 41H86C97.0457 41 105.589 31.5339 110.774 21.7809C117.663 8.82306 131.301 0 147 0C162.699 0 176.337 8.82306 183.226 21.7809Z" fill="white"/>
<g filter="url(#filter0_dddd)">
<circle cx="147" cy="41" r="32" fill="url(#paint0_linear)"/>
</g>
<path d="M136.15 92.438C136.15 92.97 136.01 93.4273 135.73 93.81C135.45 94.1927 135.076 94.4867 134.61 94.692C134.152 94.8973 133.644 95 133.084 95H128.338V85.06H133.462C133.928 85.06 134.33 85.186 134.666 85.438C135.002 85.6807 135.263 85.998 135.45 86.39C135.636 86.782 135.73 87.1833 135.73 87.594C135.73 88.0793 135.604 88.5367 135.352 88.966C135.109 89.386 134.759 89.6987 134.302 89.904C134.862 90.072 135.31 90.38 135.646 90.828C135.982 91.2667 136.15 91.8033 136.15 92.438ZM129.906 86.418V89.344H132.79C133.182 89.344 133.508 89.2087 133.77 88.938C134.031 88.658 134.162 88.308 134.162 87.888C134.162 87.4587 134.04 87.1087 133.798 86.838C133.555 86.558 133.247 86.418 132.874 86.418H129.906ZM134.54 92.144C134.54 91.7333 134.409 91.374 134.148 91.066C133.896 90.758 133.574 90.604 133.182 90.604H129.906V93.642H133.084C133.494 93.642 133.84 93.4973 134.12 93.208C134.4 92.9093 134.54 92.5547 134.54 92.144ZM137.505 92.158V87.678H139.045V91.85C139.045 93.166 139.512 93.824 140.445 93.824C140.884 93.824 141.299 93.6887 141.691 93.418C142.083 93.138 142.387 92.746 142.601 92.242V87.678H144.141V93.264C144.141 93.4413 144.174 93.5673 144.239 93.642C144.305 93.7167 144.412 93.7587 144.561 93.768V95C144.403 95.028 144.272 95.0467 144.169 95.056C144.067 95.0653 143.969 95.07 143.875 95.07C143.595 95.07 143.362 94.9953 143.175 94.846C142.989 94.6967 142.881 94.496 142.853 94.244L142.825 93.516C142.499 94.048 142.074 94.454 141.551 94.734C141.029 95.0047 140.455 95.14 139.829 95.14C139.064 95.14 138.485 94.888 138.093 94.384C137.701 93.88 137.505 93.138 137.505 92.158ZM148.711 95.14C148.095 95.14 147.511 95.0373 146.961 94.832C146.41 94.6267 145.939 94.328 145.547 93.936L146.121 92.9C146.541 93.2733 146.961 93.544 147.381 93.712C147.801 93.88 148.225 93.964 148.655 93.964C149.084 93.964 149.434 93.8847 149.705 93.726C149.975 93.558 150.111 93.3153 150.111 92.998C150.111 92.774 150.041 92.6013 149.901 92.48C149.761 92.3587 149.555 92.2607 149.285 92.186C149.023 92.1113 148.706 92.018 148.333 91.906C147.81 91.7473 147.371 91.584 147.017 91.416C146.662 91.2387 146.396 91.024 146.219 90.772C146.041 90.52 145.953 90.198 145.953 89.806C145.953 89.0967 146.219 88.546 146.751 88.154C147.283 87.7527 147.978 87.552 148.837 87.552C149.369 87.552 149.859 87.636 150.307 87.804C150.764 87.9627 151.165 88.2147 151.511 88.56L150.853 89.582C150.218 89.0033 149.518 88.714 148.753 88.714C148.417 88.714 148.104 88.7793 147.815 88.91C147.535 89.0407 147.395 89.2833 147.395 89.638C147.395 89.9367 147.521 90.1513 147.773 90.282C148.025 90.4127 148.398 90.5527 148.893 90.702C149.453 90.87 149.933 91.038 150.335 91.206C150.745 91.3647 151.058 91.5747 151.273 91.836C151.497 92.088 151.609 92.438 151.609 92.886C151.609 93.5953 151.343 94.1507 150.811 94.552C150.279 94.944 149.579 95.14 148.711 95.14ZM156.302 95.14C155.546 95.14 154.883 94.9673 154.314 94.622C153.744 94.2673 153.301 93.8007 152.984 93.222C152.666 92.6433 152.508 92.0133 152.508 91.332C152.508 90.6507 152.662 90.0253 152.97 89.456C153.287 88.8773 153.726 88.4153 154.286 88.07C154.855 87.7247 155.527 87.552 156.302 87.552C157.058 87.552 157.706 87.72 158.248 88.056C158.798 88.3827 159.209 88.8213 159.48 89.372L157.982 89.848C157.814 89.54 157.576 89.302 157.268 89.134C156.969 88.9567 156.638 88.868 156.274 88.868C155.863 88.868 155.49 88.9753 155.154 89.19C154.827 89.3953 154.566 89.6847 154.37 90.058C154.183 90.4313 154.09 90.856 154.09 91.332C154.09 91.808 154.188 92.2327 154.384 92.606C154.589 92.9793 154.855 93.278 155.182 93.502C155.518 93.7167 155.886 93.824 156.288 93.824C156.661 93.824 157.016 93.726 157.352 93.53C157.688 93.334 157.912 93.096 158.024 92.816L159.536 93.264C159.293 93.8147 158.887 94.2673 158.318 94.622C157.748 94.9673 157.076 95.14 156.302 95.14ZM160.272 92.858C160.272 92.3913 160.403 91.9853 160.664 91.64C160.925 91.2853 161.289 91.0147 161.756 90.828C162.232 90.632 162.778 90.534 163.394 90.534C163.721 90.534 164.052 90.562 164.388 90.618C164.733 90.6647 165.037 90.7347 165.298 90.828V90.366C165.298 89.8527 165.144 89.4513 164.836 89.162C164.528 88.8727 164.085 88.728 163.506 88.728C163.105 88.728 162.717 88.798 162.344 88.938C161.971 89.078 161.583 89.2833 161.182 89.554L160.664 88.518C161.149 88.2007 161.635 87.9627 162.12 87.804C162.615 87.636 163.133 87.552 163.674 87.552C164.654 87.552 165.424 87.8133 165.984 88.336C166.553 88.8493 166.838 89.582 166.838 90.534V93.264C166.838 93.4413 166.866 93.5673 166.922 93.642C166.987 93.7167 167.095 93.7587 167.244 93.768V95C167.104 95.028 166.978 95.0467 166.866 95.056C166.754 95.0653 166.661 95.07 166.586 95.07C166.25 95.07 165.998 94.9907 165.83 94.832C165.671 94.664 165.578 94.4773 165.55 94.272L165.508 93.852C165.191 94.2627 164.785 94.58 164.29 94.804C163.795 95.028 163.296 95.14 162.792 95.14C162.307 95.14 161.873 95.042 161.49 94.846C161.107 94.6407 160.809 94.3653 160.594 94.02C160.379 93.6747 160.272 93.2873 160.272 92.858ZM164.934 93.306C165.177 93.0633 165.298 92.8347 165.298 92.62V91.78C164.747 91.5747 164.187 91.472 163.618 91.472C163.058 91.472 162.601 91.5887 162.246 91.822C161.901 92.046 161.728 92.3493 161.728 92.732C161.728 93.0493 161.854 93.3433 162.106 93.614C162.367 93.8753 162.741 94.006 163.226 94.006C163.553 94.006 163.87 93.9407 164.178 93.81C164.486 93.6793 164.738 93.5113 164.934 93.306Z" fill="#777777"/>
<g clip-path="url(#clip1)">
<path d="M159.672 50.7516L154.998 46.0781C154.787 45.8672 154.502 45.75 154.202 45.75H153.438C154.731 44.0953 155.5 42.0141 155.5 39.75C155.5 34.3641 151.136 30 145.75 30C140.364 30 136 34.3641 136 39.75C136 45.1359 140.364 49.5 145.75 49.5C148.014 49.5 150.095 48.7313 151.75 47.4375V48.2016C151.75 48.5016 151.867 48.7875 152.078 48.9984L156.752 53.6719C157.192 54.1125 157.905 54.1125 158.341 53.6719L159.667 52.3453C160.108 51.9047 160.108 51.1922 159.672 50.7516ZM145.75 45.75C142.436 45.75 139.75 43.0688 139.75 39.75C139.75 36.4359 142.431 33.75 145.75 33.75C149.064 33.75 151.75 36.4312 151.75 39.75C151.75 43.0641 149.069 45.75 145.75 45.75Z" fill="white"/>
</g>
<path d="M224.5 74.25H225V73.75V72.5C225 71.3065 225.474 70.1619 226.318 69.318C227.162 68.4741 228.307 68 229.5 68C230.693 68 231.838 68.4741 232.682 69.318C233.526 70.1619 234 71.3065 234 72.5V73.75V74.25H234.5H235.75H235.75C235.935 74.25 236.113 74.3181 236.25 74.4412C236.388 74.5644 236.475 74.734 236.496 74.9175L236.496 74.9177L237.746 86.1675C237.746 86.1676 237.746 86.1676 237.746 86.1677C237.757 86.2725 237.746 86.3785 237.714 86.4788C237.682 86.5793 237.629 86.6718 237.559 86.7503L237.931 87.0839L237.559 86.7503C237.488 86.8289 237.402 86.8917 237.306 86.9348C237.21 86.9778 237.105 87 237 87H237H222H222C221.895 87 221.79 86.9778 221.694 86.9348C221.598 86.8917 221.512 86.8289 221.441 86.7503C221.371 86.6718 221.318 86.5793 221.286 86.4788C221.253 86.3784 221.243 86.2723 221.254 86.1675L222.504 74.9177L222.504 74.9175C222.525 74.734 222.612 74.5644 222.75 74.4412C222.887 74.3181 223.065 74.25 223.25 74.25H223.25H224.5ZM232 74.25H232.5V73.75V72.5C232.5 71.7044 232.184 70.9413 231.621 70.3787C231.059 69.8161 230.296 69.5 229.5 69.5C228.704 69.5 227.941 69.8161 227.379 70.3787C226.816 70.9413 226.5 71.7044 226.5 72.5V73.75V74.25H227H232ZM224.513 78.7374L224.816 78.4344L224.513 78.7374C224.841 79.0656 225.286 79.25 225.75 79.25C226.214 79.25 226.659 79.0656 226.987 78.7374C227.316 78.4092 227.5 77.9641 227.5 77.5C227.5 77.0359 227.316 76.5908 226.987 76.2626C226.659 75.9344 226.214 75.75 225.75 75.75C225.286 75.75 224.841 75.9344 224.513 76.2626L224.816 76.5656L224.513 76.2626C224.184 76.5908 224 77.0359 224 77.5C224 77.9641 224.184 78.4092 224.513 78.7374ZM233.25 75.75C232.786 75.75 232.341 75.9344 232.013 76.2626C231.684 76.5908 231.5 77.0359 231.5 77.5C231.5 77.9641 231.684 78.4092 232.013 78.7374C232.341 79.0656 232.786 79.25 233.25 79.25C233.714 79.25 234.159 79.0656 234.487 78.7374C234.816 78.4092 235 77.9641 235 77.5C235 77.0359 234.816 76.5908 234.487 76.2626C234.159 75.9344 233.714 75.75 233.25 75.75Z" fill="#777777" stroke="#777777"/>
<path d="M311.5 76.0416C309.146 76.0416 307.229 74.1251 307.229 71.7708C307.229 69.4166 309.146 67.5 311.5 67.5C313.854 67.5 315.771 69.4166 315.771 71.7708C315.771 74.1251 313.854 76.0416 311.5 76.0416ZM318.375 86.4583L317.125 86.4583L304.625 86.4583C303.474 86.4583 302.542 85.5256 302.542 84.375C302.542 82.4947 303.299 81.1636 304.507 80.2884C305.734 79.4005 307.461 78.9583 309.417 78.9583H313.583C315.539 78.9583 317.266 79.4005 318.492 80.2884C319.701 81.1636 320.458 82.4947 320.458 84.375C320.458 85.5256 319.526 86.4583 318.375 86.4583Z" fill="#777777" stroke="#777777" stroke-width="0.833333"/>
<path d="M65 68C58.373 68 53 73.375 53 80C53 86.6289 58.373 92 65 92C71.627 92 77 86.6289 77 80C77 73.375 71.627 68 65 68ZM65 73.3226C66.1224 73.3226 67.0323 74.2325 67.0323 75.3548C67.0323 76.4772 66.1224 77.3871 65 77.3871C63.8776 77.3871 62.9677 76.4772 62.9677 75.3548C62.9677 74.2325 63.8776 73.3226 65 73.3226ZM67.7097 85.6129C67.7097 85.9336 67.4497 86.1935 67.129 86.1935H62.871C62.5503 86.1935 62.2903 85.9336 62.2903 85.6129V84.4516C62.2903 84.131 62.5503 83.871 62.871 83.871H63.4516V80.7742H62.871C62.5503 80.7742 62.2903 80.5142 62.2903 80.1935V79.0323C62.2903 78.7116 62.5503 78.4516 62.871 78.4516H65.9677C66.2884 78.4516 66.5484 78.7116 66.5484 79.0323V83.871H67.129C67.4497 83.871 67.7097 84.131 67.7097 84.4516V85.6129Z" fill="#777777"/>
</g>
<defs>
<filter id="filter0_dddd" x="50" y="-20" width="194" height="194" filterUnits="userSpaceOnUse" color-interpolation-filters="sRGB">
<feFlood flood-opacity="0" result="BackgroundImageFix"/>
<feColorMatrix in="SourceAlpha" type="matrix" values="0 0 0 0 0 0 0 0 0 0 0 0 0 0 0 0 0 0 127 0"/>
<feOffset dy="1.575"/>
<feGaussianBlur stdDeviation="1.87891"/>
<feColorMatrix type="matrix" values="0 0 0 0 0.211765 0 0 0 0 0.572549 0 0 0 0 0.27451 0 0 0 0.0585 0"/>
<feBlend mode="normal" in2="BackgroundImageFix" result="effect1_dropShadow"/>
<feColorMatrix in="SourceAlpha" type="matrix" values="0 0 0 0 0 0 0 0 0 0 0 0 0 0 0 0 0 0 127 0"/>
<feOffset dy="7.2"/>
<feGaussianBlur stdDeviation="5.28125"/>
<feColorMatrix type="matrix" values="0 0 0 0 0.211765 0 0 0 0 0.572549 0 0 0 0 0.27451 0 0 0 0.09 0"/>
<feBlend mode="normal" in2="effect1_dropShadow" result="effect2_dropShadow"/>
<feColorMatrix in="SourceAlpha" type="matrix" values="0 0 0 0 0 0 0 0 0 0 0 0 0 0 0 0 0 0 127 0"/>
<feOffset dy="18.225"/>
<feGaussianBlur stdDeviation="14.168"/>
<feColorMatrix type="matrix" values="0 0 0 0 0.211765 0 0 0 0 0.572549 0 0 0 0 0.27451 0 0 0 0.1215 0"/>
<feBlend mode="normal" in2="effect2_dropShadow" result="effect3_dropShadow"/>
<feColorMatrix in="SourceAlpha" type="matrix" values="0 0 0 0 0 0 0 0 0 0 0 0 0 0 0 0 0 0 127 0"/>
<feOffset dy="36"/>
<feGaussianBlur stdDeviation="32.5"/>
<feColorMatrix type="matrix" values="0 0 0 0 0.211765 0 0 0 0 0.572549 0 0 0 0 0.27451 0 0 0 0.18 0"/>
<feBlend mode="normal" in2="effect3_dropShadow" result="effect4_dropShadow"/>
<feBlend mode="normal" in="SourceGraphic" in2="effect4_dropShadow" result="shape"/>
</filter>
<linearGradient id="paint0_linear" x1="119.8" y1="69.8" x2="181" y2="15.8" gradientUnits="userSpaceOnUse">
<stop stop-color="#26AD71"/>
<stop offset="1" stop-color="#32CB4B"/>
</linearGradient>
<clipPath id="clip0">
<rect width="375" height="131" fill="white"/>
</clipPath>
<clipPath id="clip1">
<rect width="25" height="25" fill="white" transform="translate(135 29)"/>
</clipPath>
</defs>
</svg>
