<svg width="79" height="34" viewBox="0 0 79 34" fill="none" xmlns="http://www.w3.org/2000/svg">
<path d="M16.632 21.456C16.632 22.968 16.072 24.256 14.952 25.32C13.8507 26.3653 12.2453 27 10.136 27.224V30.36H7.84V27.252C6.45867 27.1587 5.152 26.9067 3.92 26.496C2.688 26.0853 1.708 25.5627 0.98 24.928L2.24 22.1C2.93067 22.66 3.77067 23.136 4.76 23.528C5.74933 23.9013 6.776 24.1347 7.84 24.228V18.628C6.51467 18.3107 5.404 17.9653 4.508 17.592C3.63067 17.2 2.89333 16.64 2.296 15.912C1.69867 15.1653 1.4 14.1853 1.4 12.972C1.4 11.46 1.95067 10.172 3.052 9.108C4.15333 8.044 5.74933 7.40933 7.84 7.204V4.04H10.136V7.148C11.1813 7.204 12.1987 7.38133 13.188 7.68C14.196 7.97867 15.0733 8.37067 15.82 8.856L14.672 11.684C13.2533 10.8627 11.7413 10.3587 10.136 10.172V15.828C11.48 16.1453 12.5907 16.4907 13.468 16.864C14.364 17.2373 15.1107 17.7973 15.708 18.544C16.324 19.272 16.632 20.2427 16.632 21.456ZM5.012 12.804C5.012 13.42 5.25467 13.9147 5.74 14.288C6.22533 14.6613 6.92533 14.9787 7.84 15.24V10.256C6.888 10.4053 6.17867 10.704 5.712 11.152C5.24533 11.6 5.012 12.1507 5.012 12.804ZM10.136 24.172C11.1253 24.0227 11.8533 23.7333 12.32 23.304C12.8053 22.8747 13.048 22.3427 13.048 21.708C13.048 21.0733 12.796 20.5693 12.292 20.196C11.788 19.804 11.0693 19.4773 10.136 19.216V24.172ZM33.3557 7.4V27H29.7157V10.452H25.5717V7.4H33.3557ZM39.4277 27.196C38.7931 27.196 38.2517 26.9813 37.8037 26.552C37.3557 26.104 37.1317 25.544 37.1317 24.872C37.1317 24.1813 37.3464 23.6213 37.7757 23.192C38.2237 22.7627 38.7744 22.548 39.4277 22.548C40.0811 22.548 40.6224 22.7627 41.0517 23.192C41.4997 23.6213 41.7237 24.1813 41.7237 24.872C41.7237 25.544 41.4997 26.104 41.0517 26.552C40.6037 26.9813 40.0624 27.196 39.4277 27.196ZM54.7997 18.168C55.6797 18.568 56.3517 19.112 56.8157 19.8C57.2957 20.472 57.5357 21.264 57.5357 22.176C57.5357 23.2 57.2477 24.096 56.6717 24.864C56.1117 25.632 55.3117 26.224 54.2717 26.64C53.2317 27.04 52.0237 27.24 50.6477 27.24C49.2717 27.24 48.0637 27.04 47.0237 26.64C45.9997 26.224 45.2077 25.632 44.6477 24.864C44.0877 24.096 43.8077 23.2 43.8077 22.176C43.8077 21.264 44.0397 20.472 44.5037 19.8C44.9677 19.112 45.6317 18.568 46.4957 18.168C45.8237 17.8 45.3037 17.32 44.9357 16.728C44.5837 16.12 44.4077 15.424 44.4077 14.64C44.4077 13.696 44.6637 12.872 45.1757 12.168C45.7037 11.464 46.4397 10.92 47.3837 10.536C48.3277 10.152 49.4157 9.96 50.6477 9.96C51.8957 9.96 52.9917 10.152 53.9357 10.536C54.8797 10.92 55.6157 11.464 56.1437 12.168C56.6717 12.872 56.9357 13.696 56.9357 14.64C56.9357 15.424 56.7517 16.112 56.3837 16.704C56.0157 17.296 55.4877 17.784 54.7997 18.168ZM50.6477 12.408C49.6717 12.408 48.8957 12.616 48.3197 13.032C47.7597 13.448 47.4797 14.032 47.4797 14.784C47.4797 15.504 47.7597 16.08 48.3197 16.512C48.8957 16.928 49.6717 17.136 50.6477 17.136C51.6397 17.136 52.4237 16.928 52.9997 16.512C53.5757 16.08 53.8637 15.504 53.8637 14.784C53.8637 14.032 53.5677 13.448 52.9757 13.032C52.3997 12.616 51.6237 12.408 50.6477 12.408ZM50.6477 24.792C51.7997 24.792 52.7117 24.552 53.3837 24.072C54.0557 23.592 54.3917 22.928 54.3917 22.08C54.3917 21.248 54.0557 20.592 53.3837 20.112C52.7117 19.632 51.7997 19.392 50.6477 19.392C49.4957 19.392 48.5917 19.632 47.9357 20.112C47.2797 20.592 46.9517 21.248 46.9517 22.08C46.9517 22.928 47.2797 23.592 47.9357 24.072C48.5917 24.552 49.4957 24.792 50.6477 24.792Z" fill="#4CBB5E"/>
<path opacity="0.5" d="M65.02 18.58H65.89L62.59 28H61.72L65.02 18.58ZM68.4856 24.53L67.3856 25.55V27H66.4256V19.58H67.3856V24.34L70.2756 21.7H71.4356L69.2056 23.89L71.6556 27H70.4756L68.4856 24.53ZM77.4331 21.7V26.28C77.4331 27.2067 77.2031 27.89 76.7431 28.33C76.2831 28.7767 75.5965 29 74.6831 29C74.1831 29 73.7065 28.93 73.2531 28.79C72.7998 28.6567 72.4331 28.4633 72.1531 28.21L72.6131 27.47C72.8598 27.6833 73.1631 27.85 73.5231 27.97C73.8898 28.0967 74.2665 28.16 74.6531 28.16C75.2731 28.16 75.7298 28.0133 76.0231 27.72C76.3231 27.4267 76.4731 26.98 76.4731 26.38V25.96C76.2465 26.2333 75.9665 26.44 75.6331 26.58C75.3065 26.7133 74.9498 26.78 74.5631 26.78C74.0565 26.78 73.5965 26.6733 73.1831 26.46C72.7765 26.24 72.4565 25.9367 72.2231 25.55C71.9898 25.1567 71.8731 24.71 71.8731 24.21C71.8731 23.71 71.9898 23.2667 72.2231 22.88C72.4565 22.4867 72.7765 22.1833 73.1831 21.97C73.5965 21.7567 74.0565 21.65 74.5631 21.65C74.9631 21.65 75.3331 21.7233 75.6731 21.87C76.0198 22.0167 76.3031 22.2333 76.5231 22.52V21.7H77.4331ZM74.6731 25.94C75.0198 25.94 75.3298 25.8667 75.6031 25.72C75.8831 25.5733 76.0998 25.37 76.2531 25.11C76.4131 24.8433 76.4931 24.5433 76.4931 24.21C76.4931 23.6967 76.3231 23.2833 75.9831 22.97C75.6431 22.65 75.2065 22.49 74.6731 22.49C74.1331 22.49 73.6931 22.65 73.3531 22.97C73.0131 23.2833 72.8431 23.6967 72.8431 24.21C72.8431 24.5433 72.9198 24.8433 73.0731 25.11C73.2331 25.37 73.4498 25.5733 73.7231 25.72C74.0031 25.8667 74.3198 25.94 74.6731 25.94Z" fill="#777777"/>
</svg>
