<svg width="67" height="32" viewBox="0 0 67 32" fill="none" xmlns="http://www.w3.org/2000/svg">
<path d="M41.57 18.28H40.24V20H39.27V18.28H35.38V17.58L38.96 13H40.04L36.61 17.42H39.3V15.9H40.24V17.42H41.57V18.28ZM43.0248 20.06C42.8381 20.06 42.6781 19.9967 42.5448 19.87C42.4114 19.7367 42.3448 19.57 42.3448 19.37C42.3448 19.1767 42.4114 19.0167 42.5448 18.89C42.6781 18.7567 42.8381 18.69 43.0248 18.69C43.2114 18.69 43.3681 18.7533 43.4948 18.88C43.6214 19.0067 43.6848 19.17 43.6848 19.37C43.6848 19.57 43.6181 19.7367 43.4848 19.87C43.3581 19.9967 43.2048 20.06 43.0248 20.06ZM49.6034 13V13.68L46.7734 20H45.7134L48.4834 13.87H45.2834V15.12H44.3234V13H49.6034Z" fill="#777777"/>
<path d="M22.283 11.546C22.3491 11.4121 22.4513 11.2993 22.5781 11.2205C22.7049 11.1416 22.8512 11.0998 23.0005 11.0998C23.1498 11.0998 23.2962 11.1416 23.423 11.2205C23.5498 11.2993 23.652 11.4121 23.718 11.546L24.83 13.8L27.316 14.16C27.4638 14.1815 27.6026 14.2439 27.7168 14.3401C27.8309 14.4364 27.9159 14.5627 27.962 14.7047C28.0081 14.8468 28.0135 14.9989 27.9776 15.1439C27.9418 15.2888 27.866 15.4208 27.759 15.525L25.96 17.278L26.385 19.754C26.4101 19.901 26.3935 20.0521 26.3373 20.1902C26.281 20.3283 26.1873 20.4479 26.0667 20.5356C25.9461 20.6232 25.8033 20.6754 25.6546 20.6863C25.5059 20.6972 25.3571 20.6662 25.225 20.597L23 19.428L20.776 20.597C20.6439 20.6662 20.4951 20.6972 20.3464 20.6863C20.1977 20.6754 20.055 20.6232 19.9343 20.5356C19.8137 20.4479 19.72 20.3283 19.6637 20.1902C19.6075 20.0521 19.591 19.901 19.616 19.754L20.04 17.278L18.241 15.524C18.1343 15.4197 18.0588 15.2877 18.0232 15.1428C17.9875 14.9979 17.9931 14.846 18.0393 14.7041C18.0855 14.5622 18.1704 14.436 18.2845 14.3399C18.3986 14.2438 18.5374 14.1814 18.685 14.16L21.171 13.799L22.282 11.546H22.283Z" fill="#F0C334"/>
<path d="M16 1H51V-1H16V1ZM51 31H16V33H51V31ZM16 31C7.71573 31 1 24.2843 1 16H-1C-1 25.3888 6.61116 33 16 33V31ZM66 16C66 24.2843 59.2843 31 51 31V33C60.3888 33 68 25.3888 68 16H66ZM51 1C59.2843 1 66 7.71573 66 16H68C68 6.61116 60.3888 -1 51 -1V1ZM16 -1C6.61116 -1 -1 6.61116 -1 16H1C1 7.71573 7.71573 1 16 1V-1Z" fill="#E4E2E2"/>
</svg>
