<svg width="247" height="50" viewBox="0 0 247 50" fill="none" xmlns="http://www.w3.org/2000/svg">
<rect opacity="0.06" width="247" height="50" rx="18" fill="#194B38"/>
<path opacity="0.4" d="M53.048 22.076C52.808 21.812 52.488 21.596 52.088 21.428C51.688 21.252 51.232 21.164 50.72 21.164C49.968 21.164 49.42 21.308 49.076 21.596C48.732 21.876 48.56 22.26 48.56 22.748C48.56 23.084 48.644 23.348 48.812 23.54C48.98 23.732 49.236 23.892 49.58 24.02C49.932 24.14 50.38 24.26 50.924 24.38C51.532 24.508 52.056 24.66 52.496 24.836C52.936 25.012 53.276 25.252 53.516 25.556C53.756 25.852 53.876 26.256 53.876 26.768C53.876 27.288 53.744 27.72 53.48 28.064C53.216 28.408 52.852 28.664 52.388 28.832C51.924 28.992 51.396 29.072 50.804 29.072C49.476 29.072 48.336 28.66 47.384 27.836L47.804 27.152C48.108 27.472 48.524 27.748 49.052 27.98C49.588 28.212 50.18 28.328 50.828 28.328C51.5 28.328 52.028 28.204 52.412 27.956C52.796 27.708 52.988 27.34 52.988 26.852C52.988 26.5 52.892 26.22 52.7 26.012C52.508 25.796 52.22 25.62 51.836 25.484C51.452 25.348 50.98 25.216 50.42 25.088C49.828 24.952 49.328 24.8 48.92 24.632C48.52 24.464 48.216 24.244 48.008 23.972C47.8 23.7 47.696 23.332 47.696 22.868C47.696 22.34 47.824 21.896 48.08 21.536C48.344 21.168 48.704 20.892 49.16 20.708C49.616 20.516 50.14 20.42 50.732 20.42C51.292 20.42 51.796 20.508 52.244 20.684C52.692 20.852 53.096 21.092 53.456 21.404L53.048 22.076ZM57.8891 29.12C57.2891 29.12 56.7531 28.972 56.2811 28.676C55.8091 28.38 55.4371 27.984 55.1651 27.488C54.8931 26.992 54.7571 26.448 54.7571 25.856C54.7571 25.272 54.8891 24.736 55.1531 24.248C55.4251 23.76 55.7971 23.372 56.2691 23.084C56.7411 22.788 57.2771 22.64 57.8771 22.64C58.4931 22.64 59.0331 22.788 59.4971 23.084C59.9611 23.38 60.3211 23.772 60.5771 24.26C60.8411 24.74 60.9731 25.268 60.9731 25.844C60.9731 25.972 60.9691 26.08 60.9611 26.168H55.6091C55.6491 26.616 55.7771 27.016 55.9931 27.368C56.2091 27.712 56.4851 27.988 56.8211 28.196C57.1571 28.396 57.5251 28.496 57.9251 28.496C58.3331 28.496 58.7171 28.392 59.0771 28.184C59.4371 27.976 59.6931 27.704 59.8451 27.368L60.5531 27.56C60.4251 27.864 60.2251 28.136 59.9531 28.376C59.6891 28.608 59.3811 28.792 59.0291 28.928C58.6771 29.056 58.2971 29.12 57.8891 29.12ZM55.5851 25.58H60.2051C60.1731 25.132 60.0491 24.736 59.8331 24.392C59.6171 24.04 59.3411 23.768 59.0051 23.576C58.6691 23.376 58.2971 23.276 57.8891 23.276C57.4811 23.276 57.1091 23.376 56.7731 23.576C56.4371 23.768 56.1611 24.04 55.9451 24.392C55.7371 24.736 55.6171 25.132 55.5851 25.58ZM61.728 27.2C61.728 26.816 61.84 26.484 62.064 26.204C62.288 25.916 62.596 25.692 62.988 25.532C63.388 25.372 63.848 25.292 64.368 25.292C64.672 25.292 64.988 25.32 65.316 25.376C65.644 25.424 65.936 25.492 66.192 25.58V25.052C66.192 24.524 66.036 24.104 65.724 23.792C65.412 23.48 64.98 23.324 64.428 23.324C64.1 23.324 63.772 23.388 63.444 23.516C63.116 23.636 62.776 23.816 62.424 24.056L62.112 23.48C62.52 23.2 62.92 22.992 63.312 22.856C63.704 22.712 64.104 22.64 64.512 22.64C65.28 22.64 65.888 22.86 66.336 23.3C66.784 23.74 67.008 24.348 67.008 25.124V28.016C67.008 28.232 67.108 28.344 67.308 28.352V29C67.132 29.024 67.008 29.032 66.936 29.024C66.736 29.016 66.584 28.952 66.48 28.832C66.376 28.712 66.32 28.584 66.312 28.448L66.3 27.992C66.02 28.352 65.656 28.632 65.208 28.832C64.76 29.024 64.304 29.12 63.84 29.12C63.432 29.12 63.068 29.036 62.748 28.868C62.428 28.692 62.176 28.46 61.992 28.172C61.816 27.876 61.728 27.552 61.728 27.2ZM65.916 27.68C66.1 27.464 66.192 27.264 66.192 27.08V26.168C65.64 25.952 65.064 25.844 64.464 25.844C63.88 25.844 63.408 25.96 63.048 26.192C62.688 26.424 62.508 26.74 62.508 27.14C62.508 27.484 62.64 27.796 62.904 28.076C63.176 28.356 63.552 28.496 64.032 28.496C64.424 28.496 64.788 28.42 65.124 28.268C65.468 28.116 65.732 27.92 65.916 27.68ZM71.8911 23.468C71.3471 23.484 70.8671 23.636 70.4511 23.924C70.0431 24.212 69.7551 24.608 69.5871 25.112V29H68.7711V22.748H69.5391V24.248C69.7551 23.808 70.0391 23.452 70.3911 23.18C70.7511 22.908 71.1311 22.756 71.5311 22.724C71.6111 22.716 71.6791 22.712 71.7351 22.712C71.7911 22.712 71.8431 22.716 71.8911 22.724V23.468ZM75.5026 29.12C74.8946 29.12 74.3546 28.972 73.8826 28.676C73.4106 28.372 73.0386 27.976 72.7666 27.488C72.4946 26.992 72.3586 26.448 72.3586 25.856C72.3586 25.264 72.4906 24.728 72.7546 24.248C73.0186 23.76 73.3866 23.372 73.8586 23.084C74.3306 22.788 74.8746 22.64 75.4906 22.64C76.0746 22.64 76.5866 22.776 77.0266 23.048C77.4746 23.312 77.8106 23.672 78.0346 24.128L77.2426 24.38C77.0666 24.06 76.8186 23.812 76.4986 23.636C76.1866 23.452 75.8386 23.36 75.4546 23.36C75.0306 23.36 74.6466 23.468 74.3026 23.684C73.9666 23.9 73.6946 24.2 73.4866 24.584C73.2866 24.96 73.1866 25.384 73.1866 25.856C73.1866 26.328 73.2906 26.756 73.4986 27.14C73.7066 27.524 73.9826 27.832 74.3266 28.064C74.6706 28.288 75.0506 28.4 75.4666 28.4C75.7386 28.4 76.0026 28.352 76.2586 28.256C76.5146 28.16 76.7346 28.032 76.9186 27.872C77.1026 27.704 77.2266 27.524 77.2906 27.332L78.0946 27.572C77.9826 27.868 77.7986 28.136 77.5426 28.376C77.2866 28.608 76.9826 28.792 76.6306 28.928C76.2786 29.056 75.9026 29.12 75.5026 29.12ZM84.6326 29H83.8166V25.508C83.8166 24.092 83.3366 23.384 82.3766 23.384C82.0646 23.384 81.7606 23.464 81.4646 23.624C81.1686 23.776 80.9046 23.988 80.6726 24.26C80.4486 24.524 80.2886 24.828 80.1926 25.172V29H79.3766V20.24H80.1926V24.164C80.4406 23.7 80.7846 23.332 81.2246 23.06C81.6726 22.78 82.1486 22.64 82.6526 22.64C83.1326 22.64 83.5166 22.756 83.8046 22.988C84.0926 23.212 84.3006 23.528 84.4286 23.936C84.5646 24.336 84.6326 24.804 84.6326 25.34V29ZM89.7313 29V23.396H88.8673V22.748H89.7313V22.58C89.7313 21.812 89.8953 21.212 90.2233 20.78C90.5593 20.34 91.0073 20.12 91.5673 20.12C91.8073 20.12 92.0433 20.156 92.2753 20.228C92.5153 20.3 92.7193 20.396 92.8873 20.516L92.6353 21.104C92.3953 20.92 92.0913 20.828 91.7233 20.828C91.3473 20.828 91.0553 20.976 90.8473 21.272C90.6473 21.568 90.5473 21.996 90.5473 22.556V22.748H92.2753V23.396H90.5473V29H89.7313ZM96.5122 23.468C95.9682 23.484 95.4882 23.636 95.0722 23.924C94.6642 24.212 94.3762 24.608 94.2082 25.112V29H93.3922V22.748H94.1602V24.248C94.3762 23.808 94.6602 23.452 95.0122 23.18C95.3722 22.908 95.7522 22.756 96.1522 22.724C96.2322 22.716 96.3002 22.712 96.3562 22.712C96.4122 22.712 96.4642 22.716 96.5122 22.724V23.468ZM100.112 29.12C99.5117 29.12 98.9757 28.972 98.5037 28.676C98.0317 28.38 97.6597 27.984 97.3877 27.488C97.1157 26.992 96.9797 26.448 96.9797 25.856C96.9797 25.272 97.1117 24.736 97.3757 24.248C97.6477 23.76 98.0197 23.372 98.4917 23.084C98.9637 22.788 99.4997 22.64 100.1 22.64C100.716 22.64 101.256 22.788 101.72 23.084C102.184 23.38 102.544 23.772 102.8 24.26C103.064 24.74 103.196 25.268 103.196 25.844C103.196 25.972 103.192 26.08 103.184 26.168H97.8317C97.8717 26.616 97.9997 27.016 98.2157 27.368C98.4317 27.712 98.7077 27.988 99.0437 28.196C99.3797 28.396 99.7477 28.496 100.148 28.496C100.556 28.496 100.94 28.392 101.3 28.184C101.66 27.976 101.916 27.704 102.068 27.368L102.776 27.56C102.648 27.864 102.448 28.136 102.176 28.376C101.912 28.608 101.604 28.792 101.252 28.928C100.9 29.056 100.52 29.12 100.112 29.12ZM97.8077 25.58H102.428C102.396 25.132 102.272 24.736 102.056 24.392C101.84 24.04 101.564 23.768 101.228 23.576C100.892 23.376 100.52 23.276 100.112 23.276C99.7037 23.276 99.3317 23.376 98.9957 23.576C98.6597 23.768 98.3837 24.04 98.1677 24.392C97.9597 24.736 97.8397 25.132 97.8077 25.58ZM106.507 29.12C105.995 29.12 105.519 29.036 105.079 28.868C104.647 28.692 104.267 28.436 103.939 28.1L104.275 27.524C104.627 27.852 104.979 28.092 105.331 28.244C105.691 28.388 106.071 28.46 106.471 28.46C106.951 28.46 107.343 28.364 107.647 28.172C107.959 27.972 108.115 27.688 108.115 27.32C108.115 27.072 108.039 26.884 107.887 26.756C107.743 26.62 107.531 26.512 107.251 26.432C106.979 26.352 106.651 26.26 106.267 26.156C105.835 26.036 105.471 25.912 105.175 25.784C104.887 25.648 104.667 25.48 104.515 25.28C104.371 25.072 104.299 24.804 104.299 24.476C104.299 24.076 104.399 23.74 104.599 23.468C104.807 23.196 105.087 22.992 105.439 22.856C105.799 22.712 106.199 22.64 106.639 22.64C107.119 22.64 107.543 22.716 107.911 22.868C108.279 23.02 108.579 23.232 108.811 23.504L108.415 24.056C108.199 23.8 107.931 23.612 107.611 23.492C107.299 23.364 106.959 23.3 106.591 23.3C106.335 23.3 106.091 23.336 105.859 23.408C105.627 23.472 105.435 23.584 105.283 23.744C105.139 23.896 105.067 24.108 105.067 24.38C105.067 24.716 105.191 24.948 105.439 25.076C105.687 25.204 106.063 25.34 106.567 25.484C107.039 25.612 107.451 25.74 107.803 25.868C108.155 25.996 108.427 26.168 108.619 26.384C108.811 26.592 108.907 26.884 108.907 27.26C108.907 27.844 108.687 28.3 108.247 28.628C107.807 28.956 107.227 29.12 106.507 29.12ZM115.511 29H114.695V25.508C114.695 24.092 114.215 23.384 113.255 23.384C112.943 23.384 112.639 23.464 112.343 23.624C112.047 23.776 111.783 23.988 111.551 24.26C111.327 24.524 111.167 24.828 111.071 25.172V29H110.255V20.24H111.071V24.164C111.319 23.7 111.663 23.332 112.103 23.06C112.551 22.78 113.027 22.64 113.531 22.64C114.011 22.64 114.395 22.756 114.683 22.988C114.971 23.212 115.179 23.528 115.307 23.936C115.443 24.336 115.511 24.804 115.511 25.34V29ZM120.478 29V20.48H126.07V21.224H121.318V24.356H125.326V25.052H121.318V29H120.478ZM130.04 23.468C129.496 23.484 129.016 23.636 128.6 23.924C128.192 24.212 127.904 24.608 127.736 25.112V29H126.92V22.748H127.688V24.248C127.904 23.808 128.188 23.452 128.54 23.18C128.9 22.908 129.28 22.756 129.68 22.724C129.76 22.716 129.828 22.712 129.884 22.712C129.94 22.712 129.992 22.716 130.04 22.724V23.468ZM131.067 26.42V22.748H131.883V26.276C131.883 27.692 132.367 28.4 133.335 28.4C133.815 28.4 134.263 28.244 134.679 27.932C135.103 27.62 135.407 27.204 135.591 26.684V22.748H136.407V28.016C136.407 28.232 136.503 28.344 136.695 28.352V29C136.599 29.016 136.523 29.024 136.467 29.024C136.419 29.024 136.367 29.024 136.311 29.024C136.143 29.008 135.999 28.944 135.879 28.832C135.767 28.72 135.711 28.584 135.711 28.424L135.687 27.584C135.415 28.072 135.043 28.452 134.571 28.724C134.107 28.988 133.603 29.12 133.059 29.12C131.731 29.12 131.067 28.22 131.067 26.42ZM138.252 21.44V20.24H139.068V21.44H138.252ZM138.252 29V22.748H139.068V29H138.252ZM143.865 28.7C143.769 28.74 143.593 28.812 143.337 28.916C143.081 29.02 142.785 29.072 142.449 29.072C142.097 29.072 141.789 28.972 141.525 28.772C141.261 28.572 141.129 28.272 141.129 27.872V23.396H140.265V22.748H141.129V20.636H141.945V22.748H143.385V23.396H141.945V27.644C141.961 27.876 142.041 28.048 142.185 28.16C142.337 28.264 142.509 28.316 142.701 28.316C142.925 28.316 143.125 28.28 143.301 28.208C143.485 28.128 143.601 28.072 143.649 28.04L143.865 28.7ZM146.936 29.12C146.424 29.12 145.948 29.036 145.508 28.868C145.076 28.692 144.696 28.436 144.368 28.1L144.704 27.524C145.056 27.852 145.408 28.092 145.76 28.244C146.12 28.388 146.5 28.46 146.9 28.46C147.38 28.46 147.772 28.364 148.076 28.172C148.388 27.972 148.544 27.688 148.544 27.32C148.544 27.072 148.468 26.884 148.316 26.756C148.172 26.62 147.96 26.512 147.68 26.432C147.408 26.352 147.08 26.26 146.696 26.156C146.264 26.036 145.9 25.912 145.604 25.784C145.316 25.648 145.096 25.48 144.944 25.28C144.8 25.072 144.728 24.804 144.728 24.476C144.728 24.076 144.828 23.74 145.028 23.468C145.236 23.196 145.516 22.992 145.868 22.856C146.228 22.712 146.628 22.64 147.068 22.64C147.548 22.64 147.972 22.716 148.34 22.868C148.708 23.02 149.008 23.232 149.24 23.504L148.844 24.056C148.628 23.8 148.36 23.612 148.04 23.492C147.728 23.364 147.388 23.3 147.02 23.3C146.764 23.3 146.52 23.336 146.288 23.408C146.056 23.472 145.864 23.584 145.712 23.744C145.568 23.896 145.496 24.108 145.496 24.38C145.496 24.716 145.62 24.948 145.868 25.076C146.116 25.204 146.492 25.34 146.996 25.484C147.468 25.612 147.88 25.74 148.232 25.868C148.584 25.996 148.856 26.168 149.048 26.384C149.24 26.592 149.336 26.884 149.336 27.26C149.336 27.844 149.116 28.3 148.676 28.628C148.236 28.956 147.656 29.12 146.936 29.12Z" fill="#194B38"/>
<path d="M33.5583 29.0248L31.8333 27.2582C31.4623 26.9055 30.9942 26.6718 30.4893 26.5871C29.9844 26.5025 29.4658 26.5707 29 26.7832L28.25 26.0332C29.1338 24.8523 29.5374 23.3804 29.3796 21.9139C29.2218 20.4473 28.5143 19.095 27.3995 18.1292C26.2847 17.1633 24.8454 16.6556 23.3714 16.7083C21.8973 16.761 20.4979 17.3702 19.4549 18.4131C18.412 19.4561 17.8028 20.8555 17.7501 22.3295C17.6974 23.8036 18.2051 25.2429 19.171 26.3577C20.1368 27.4725 21.4891 28.18 22.9557 28.3378C24.4222 28.4956 25.8941 28.092 27.075 27.2082L27.8166 27.9498C27.5792 28.4162 27.4941 28.9453 27.5734 29.4626C27.6526 29.9799 27.8922 30.4593 28.2583 30.8332L30.025 32.5998C30.4937 33.068 31.1291 33.331 31.7916 33.331C32.4541 33.331 33.0896 33.068 33.5583 32.5998C33.7964 32.367 33.9856 32.0889 34.1148 31.782C34.244 31.475 34.3105 31.1454 34.3105 30.8123C34.3105 30.4793 34.244 30.1496 34.1148 29.8427C33.9856 29.5357 33.7964 29.2577 33.5583 29.0248ZM26.4916 25.4915C25.9085 26.0732 25.1661 26.469 24.3581 26.6289C23.5501 26.7888 22.7129 26.7057 21.9521 26.39C21.1914 26.0743 20.5413 25.5403 20.0839 24.8553C19.6265 24.1703 19.3824 23.3651 19.3824 22.5415C19.3824 21.7179 19.6265 20.9127 20.0839 20.2277C20.5413 19.5427 21.1914 19.0087 21.9521 18.693C22.7129 18.3773 23.5501 18.2942 24.3581 18.4541C25.1661 18.614 25.9085 19.0098 26.4916 19.5915C26.8797 19.9785 27.1875 20.4383 27.3976 20.9445C27.6076 21.4508 27.7158 21.9934 27.7158 22.5415C27.7158 23.0896 27.6076 23.6322 27.3976 24.1384C27.1875 24.6447 26.8797 25.1044 26.4916 25.4915ZM32.3833 31.3832C32.3058 31.4613 32.2137 31.5233 32.1121 31.5656C32.0106 31.6079 31.9016 31.6297 31.7916 31.6297C31.6816 31.6297 31.5727 31.6079 31.4712 31.5656C31.3696 31.5233 31.2774 31.4613 31.2 31.3832L29.4333 29.6165C29.3552 29.539 29.2932 29.4469 29.2509 29.3453C29.2086 29.2438 29.1868 29.1348 29.1868 29.0248C29.1868 28.9148 29.2086 28.8059 29.2509 28.7043C29.2932 28.6028 29.3552 28.5106 29.4333 28.4332C29.5108 28.3551 29.6029 28.2931 29.7045 28.2508C29.806 28.2084 29.915 28.1867 30.025 28.1867C30.135 28.1867 30.2439 28.2084 30.3455 28.2508C30.447 28.2931 30.5392 28.3551 30.6166 28.4332L32.3833 30.1998C32.4614 30.2773 32.5234 30.3695 32.5657 30.471C32.608 30.5726 32.6298 30.6815 32.6298 30.7915C32.6298 30.9015 32.608 31.0104 32.5657 31.112C32.5234 31.2135 32.4614 31.3057 32.3833 31.3832Z" fill="#4CBB5E" stroke="#4CBB5E" stroke-width="0.2"/>
</svg>
