<svg width="19" height="20" viewBox="0 0 19 20" fill="none" xmlns="http://www.w3.org/2000/svg">
<path d="M9.5 9.04165C7.14574 9.04165 5.22917 7.12507 5.22917 4.77081C5.22917 2.41656 7.14574 0.49998 9.5 0.49998C11.8543 0.49998 13.7708 2.41656 13.7708 4.77081C13.7708 7.12507 11.8543 9.04165 9.5 9.04165ZM16.375 19.4583L15.125 19.4583L2.62499 19.4583C1.4744 19.4583 0.541667 18.5256 0.541667 17.375C0.541667 15.4947 1.29853 14.1636 2.50736 13.2884C3.73382 12.4005 5.46093 11.9583 7.41667 11.9583H11.5833C13.5385 11.9583 15.2657 12.4005 16.4923 13.2884C17.7012 14.1636 18.4583 15.4947 18.4583 17.375C18.4583 18.5256 17.5256 19.4583 16.375 19.4583Z" fill="#ffffff" />
</svg>
